<?xml version="1.0" standalone="no"?>
<!DOCTYPE svg PUBLIC "-//W3C//DTD SVG 20010904//EN"
 "http://www.w3.org/TR/2001/REC-SVG-20010904/DTD/svg10.dtd">
<svg version="1.0" xmlns="http://www.w3.org/2000/svg"
 width="1600.000000pt" height="757.000000pt" viewBox="0 0 1600.000000 757.000000"
 preserveAspectRatio="xMidYMid meet">

<g transform="translate(0.000000,757.000000) scale(0.100000,-0.100000)"
fill="#000000" stroke="none">
<path d="M12988 7356 c-7 -17 -19 -26 -35 -26 -24 0 -24 0 -21 -102 l3 -103
88 -3 c57 -2 94 1 103 9 10 8 14 35 14 89 0 93 -5 110 -34 110 -12 0 -25 9
-31 23 -7 15 -20 23 -42 25 -27 3 -35 -1 -45 -22z m70 -13 c2 -8 -6 -13 -22
-13 -25 0 -33 10 -19 24 10 10 36 3 41 -11z m-78 -53 c0 -11 5 -20 11 -20 6 0
13 9 16 20 3 13 14 20 29 20 17 0 24 -6 24 -20 0 -11 4 -20 9 -20 5 0 11 9 14
20 3 11 10 20 16 20 7 0 11 -29 11 -80 l0 -80 -80 0 -80 0 0 73 c0 41 3 77 7
80 12 13 23 7 23 -13z"/>
<path d="M14575 7352 c-77 -36 -96 -134 -39 -202 77 -90 226 -34 226 86 0 101
-95 159 -187 116z m130 -36 c30 -30 41 -71 28 -105 -7 -20 -14 -25 -34 -22
-27 5 -101 5 -138 0 -48 -7 -45 85 4 129 37 32 107 31 140 -2z m-25 -151 l25
-13 -28 -11 c-39 -15 -69 -14 -93 3 -18 14 -18 15 6 25 35 14 61 13 90 -4z"/>
<path d="M14602 7298 c-27 -27 -6 -68 35 -68 29 0 48 33 33 60 -12 22 -49 27
-68 8z m48 -28 c0 -21 -24 -28 -35 -10 -8 14 3 30 21 30 8 0 14 -9 14 -20z"/>
<path d="M1070 7245 c0 -88 1 -95 20 -95 19 0 20 7 20 95 0 88 -1 95 -20 95
-19 0 -20 -7 -20 -95z"/>
<path d="M2070 7245 c0 -62 4 -94 10 -90 6 3 10 18 10 33 l1 27 27 -33 c15
-18 34 -32 41 -32 9 0 2 13 -19 35 l-34 35 29 30 c37 39 24 52 -15 15 l-30
-29 0 47 c0 25 -4 49 -10 52 -6 4 -10 -28 -10 -90z"/>
<path d="M908 7252 c-16 -43 -28 -83 -28 -90 0 -20 37 -13 43 8 4 15 14 20 37
20 23 0 33 -5 37 -20 7 -25 43 -27 42 -2 0 9 -13 49 -28 87 -22 58 -31 70 -51
73 -23 2 -28 -4 -52 -76z m65 -4 c6 -23 -12 -43 -25 -30 -9 9 1 52 12 52 4 0
10 -10 13 -22z"/>
<path d="M1590 7240 l0 -90 39 0 c23 0 48 8 62 19 21 17 23 23 13 48 -7 20 -8
36 0 52 8 20 6 27 -13 42 -14 11 -39 19 -62 19 l-39 0 0 -90z m90 55 c18 -21
-4 -45 -41 -45 -26 0 -29 4 -29 30 0 26 3 30 29 30 16 0 34 -7 41 -15z m-9
-65 c10 -6 19 -19 19 -29 0 -21 -19 -31 -56 -31 -20 0 -24 5 -24 28 0 43 20
53 61 32z"/>
<path d="M1140 7240 c0 -37 5 -55 20 -70 23 -23 33 -24 61 -10 13 7 19 7 19 0
0 -5 9 -10 20 -10 18 0 20 7 20 70 0 63 -2 70 -19 70 -17 0 -20 -8 -23 -47 -3
-44 -5 -48 -28 -48 -23 0 -25 4 -28 48 -3 39 -6 47 -23 47 -16 0 -19 -7 -19
-50z"/>
<path d="M1312 7223 c2 -55 6 -68 21 -71 14 -3 17 4 17 37 0 32 5 44 25 57 27
17 34 44 12 44 -7 0 -18 -5 -25 -12 -9 -9 -12 -9 -12 0 0 7 -9 12 -20 12 -19
0 -21 -5 -18 -67z"/>
<path d="M1425 7267 c-8 -12 -15 -34 -15 -49 0 -49 58 -86 87 -57 8 8 13 8 17
0 4 -6 14 -11 22 -11 11 0 14 16 14 69 l0 69 -55 1 c-45 0 -57 -4 -70 -22z
m73 -16 c8 -4 12 -19 10 -32 -2 -18 -9 -24 -28 -24 -28 0 -39 27 -20 50 14 17
20 18 38 6z"/>
<path d="M1757 7272 c-39 -42 -7 -122 48 -122 56 0 88 86 47 123 -25 22 -75
21 -95 -1z m81 -14 c7 -7 12 -25 12 -40 0 -34 -41 -59 -68 -41 -21 12 -28 59
-11 79 14 17 51 18 67 2z"/>
<path d="M1917 7272 c-39 -42 -7 -122 48 -122 56 0 88 86 47 123 -25 22 -75
21 -95 -1z m81 -14 c7 -7 12 -25 12 -40 0 -34 -41 -59 -68 -41 -21 12 -28 59
-11 79 14 17 51 18 67 2z"/>
<path d="M2200 7275 c-18 -22 -5 -44 35 -61 19 -8 35 -19 35 -24 0 -18 -32
-24 -52 -11 -27 16 -38 3 -14 -15 38 -27 86 -12 86 29 0 11 -13 23 -34 32 -19
8 -37 19 -41 25 -10 16 26 24 47 11 25 -15 35 -7 18 14 -16 19 -64 19 -80 0z"/>
<path d="M2455 7266 c-27 -41 13 -89 55 -66 11 6 20 13 20 16 0 2 -9 0 -19 -6
-38 -20 -71 13 -51 51 12 22 39 25 60 7 12 -11 12 -10 1 5 -19 24 -48 21 -66
-7z"/>
<path d="M2566 7244 c-13 -39 -13 -44 -1 -34 8 7 13 15 11 19 -3 4 -1 13 4 21
6 10 12 5 23 -21 9 -19 16 -29 16 -23 1 13 -27 84 -33 84 -2 0 -11 -21 -20
-46z"/>
<path d="M2647 7282 c6 -4 13 -25 16 -47 l4 -40 1 42 c2 30 7 43 20 46 9 3 1
5 -18 6 -19 0 -30 -3 -23 -7z"/>
<path d="M2714 7276 c-3 -8 -4 -29 -2 -48 2 -27 8 -33 28 -35 25 -3 25 -3 3 7
-27 11 -29 25 -5 39 16 10 16 10 0 11 -26 0 -22 28 5 33 l22 4 -23 2 c-12 0
-25 -5 -28 -13z"/>
<path d="M2798 7279 c-10 -5 -18 -20 -18 -33 0 -13 8 -30 18 -37 14 -11 15
-11 5 1 -30 33 1 85 38 62 10 -7 19 -8 19 -3 0 8 -24 21 -38 21 -4 0 -15 -5
-24 -11z"/>
<path d="M2897 7272 c-21 -23 -22 -46 -1 -62 13 -12 14 -10 3 13 -15 32 3 60
35 55 25 -4 34 -42 14 -65 -11 -14 -11 -15 2 -11 8 2 16 17 18 32 6 51 -38 74
-71 38z"/>
<path d="M2992 7243 l1 -48 4 43 c3 27 9 42 18 42 20 0 29 -19 16 -34 -13 -15
-5 -46 11 -46 6 0 6 6 -1 14 -9 11 -9 19 1 36 11 17 11 22 -2 30 -8 5 -23 10
-32 10 -15 0 -18 -8 -16 -47z"/>
<path d="M3117 7243 c-14 -37 -14 -43 -2 -33 8 6 14 15 13 18 -5 42 18 42 26
0 3 -17 9 -29 12 -25 7 7 -14 74 -25 81 -4 3 -15 -16 -24 -41z"/>
<path d="M3200 7275 c-14 -16 -5 -35 16 -35 8 0 19 -10 24 -22 8 -22 9 -22 9
-2 1 13 -9 25 -25 32 -28 13 -23 37 7 29 11 -3 17 -1 13 4 -8 14 -30 11 -44
-6z"/>
<path d="M3541 7243 c1 -27 4 -38 6 -26 2 12 12 24 21 26 15 4 15 5 0 6 -26 2
-22 29 5 34 19 4 18 4 -5 6 -27 1 -28 -1 -27 -46z"/>
<path d="M3635 7281 c-3 -6 1 -18 9 -27 9 -9 14 -19 11 -24 -3 -4 2 -14 11
-21 13 -11 13 -6 -2 32 -21 54 -20 53 -29 40z"/>
<path d="M3696 7275 c24 -77 36 -91 48 -59 9 23 7 31 -4 14 -10 -16 -10 -17
-33 30 -10 19 -15 26 -11 15z"/>
<path d="M3756 7275 c-9 -26 -7 -32 5 -12 6 10 9 21 6 23 -2 3 -7 -2 -11 -11z"/>
<path d="M3799 7273 c-13 -15 -12 -15 7 -3 12 7 29 10 38 7 19 -8 21 -47 4
-66 -11 -11 -10 -13 2 -9 19 6 25 55 9 74 -15 19 -43 18 -60 -3z"/>
<path d="M3891 7243 c0 -35 3 -43 9 -28 4 11 6 30 3 43 -4 17 -1 22 16 22 22
0 28 -19 11 -36 -7 -7 -5 -17 6 -30 15 -18 15 -18 4 4 -8 16 -8 22 0 22 6 0
10 10 8 23 -2 16 -11 23 -30 25 -27 3 -28 2 -27 -45z"/>
<path d="M4013 7283 c12 -3 17 -16 19 -46 l1 -42 4 40 c3 22 10 43 16 47 7 4
-4 7 -23 7 -19 -1 -27 -3 -17 -6z"/>
<path d="M4092 7278 c-13 -13 -16 -64 -4 -71 4 -3 7 11 7 31 0 33 3 37 25 37
21 0 26 -5 28 -32 2 -25 -1 -33 -18 -38 -12 -4 -19 -9 -17 -12 9 -8 44 15 51
33 8 22 -19 64 -42 64 -10 0 -23 -5 -30 -12z"/>
<path d="M4187 7283 c-14 -14 -6 -34 18 -43 28 -11 31 -20 13 -39 -11 -10 -10
-11 5 -6 26 11 21 44 -8 51 -31 8 -27 30 4 27 13 -2 20 1 16 7 -7 11 -38 13
-48 3z"/>
<path d="M4531 7243 c1 -39 3 -43 8 -19 l6 30 13 -28 c6 -15 16 -24 22 -21 5
3 1 14 -10 25 -11 11 -20 26 -20 34 0 8 -4 18 -10 21 -6 4 -10 -12 -9 -42z"/>
<path d="M4608 7278 c-2 -7 -1 -29 3 -48 6 -34 6 -33 8 13 1 46 -3 59 -11 35z"/>
<path d="M4681 7245 l1 -50 8 40 c5 22 4 44 -1 50 -5 5 -9 -11 -8 -40z"/>
<path d="M4773 7245 c0 -27 2 -40 4 -27 3 15 11 22 28 22 17 0 25 -7 28 -22 2
-13 4 -3 4 22 1 25 -1 37 -4 28 -7 -27 -51 -23 -56 5 -2 12 -4 0 -4 -28z"/>
<path d="M4877 7248 c-20 -50 -14 -65 6 -17 l14 34 16 -35 c8 -19 16 -30 16
-24 1 12 -27 84 -33 84 -1 0 -10 -19 -19 -42z"/>
<path d="M4992 7243 c2 -28 8 -47 16 -49 7 -1 8 0 2 3 -14 7 -13 40 3 46 10 4
10 6 0 6 -19 1 -15 29 5 34 12 3 11 5 -6 6 -21 1 -23 -2 -20 -46z"/>
<path d="M5060 7275 c-14 -16 -5 -35 16 -35 8 0 19 -10 24 -22 8 -22 9 -22 9
-2 1 13 -9 25 -25 32 -28 13 -23 37 7 29 11 -3 17 -1 13 4 -8 14 -30 11 -44
-6z"/>
<path d="M5139 7281 c12 -8 51 -4 51 5 0 2 -15 4 -32 4 -23 0 -29 -3 -19 -9z"/>
<path d="M5299 7289 c-6 -21 -4 -81 3 -85 4 -3 8 9 8 26 0 22 4 29 13 24 7 -5
7 -1 -3 12 -8 10 -16 21 -17 23 -2 2 -3 2 -4 0z"/>
<path d="M5360 7254 c0 -33 -2 -35 -17 -23 -15 13 -15 12 -4 -8 19 -36 31 -27
31 22 0 25 -2 45 -5 45 -3 0 -5 -16 -5 -36z"/>
<path d="M5397 7282 c6 -4 13 -25 16 -47 l4 -40 1 42 c1 23 8 44 15 46 6 3 -1
6 -18 6 -17 0 -25 -3 -18 -7z"/>
<path d="M5462 7243 c2 -39 7 -48 23 -51 l20 -4 -20 16 c-20 16 -20 16 -1 31
17 13 18 15 3 15 -25 0 -21 28 6 33 18 4 18 4 -6 6 -27 1 -28 0 -25 -46z"/>
<path d="M13642 7245 c0 -40 2 -44 7 -20 3 17 13 30 21 30 8 0 18 -13 22 -30
6 -29 6 -29 5 5 -2 28 -6 35 -22 35 -11 0 -23 7 -27 15 -4 8 -6 -7 -6 -35z"/>
<path d="M13857 7283 c-14 -14 -6 -34 18 -45 15 -7 24 -17 21 -25 -3 -8 -1
-11 4 -8 17 11 11 25 -15 37 -30 14 -35 43 -5 35 11 -3 18 -1 14 4 -6 11 -28
12 -37 2z"/>
<path d="M14183 7245 c0 -27 2 -38 4 -22 2 15 2 37 0 50 -2 12 -4 0 -4 -28z"/>
<path d="M15291 7243 c0 -35 3 -43 9 -28 4 11 6 30 3 43 -4 18 -1 22 17 22 17
0 21 -4 17 -20 -3 -11 -1 -20 5 -20 5 0 8 10 6 23 -2 16 -11 23 -30 25 -27 3
-28 2 -27 -45z"/>
<path d="M15506 7274 c-8 -20 0 -32 14 -18 5 5 5 15 1 22 -6 11 -10 10 -15 -4z"/>
<path d="M15583 7245 c0 -27 2 -38 4 -22 2 15 2 37 0 50 -2 12 -4 0 -4 -28z"/>
<path d="M3073 7240 c0 -25 2 -35 4 -22 2 12 2 32 0 45 -2 12 -4 2 -4 -23z"/>
<path d="M3983 7240 c0 -25 2 -35 4 -22 2 12 2 32 0 45 -2 12 -4 2 -4 -23z"/>
<path d="M4643 7240 c0 -25 2 -35 4 -22 2 12 2 32 0 45 -2 12 -4 2 -4 -23z"/>
<path d="M4741 7250 l-1 -35 -20 25 c-11 14 -20 21 -19 15 0 -14 38 -59 45
-52 3 3 4 22 1 43 l-4 39 -2 -35z"/>
<path d="M5217 7239 c-13 -34 -14 -39 -2 -29 8 7 15 21 15 31 0 11 5 19 10 19
6 0 10 -8 10 -19 0 -10 7 -24 15 -31 12 -10 11 -5 -2 29 -9 23 -19 41 -23 41
-4 0 -14 -18 -23 -41z"/>
<path d="M13412 7240 c0 -35 2 -40 7 -20 l7 25 8 -22 c4 -13 11 -23 16 -23 10
0 22 31 15 38 -3 3 -5 0 -5 -6 0 -22 -16 -12 -33 21 l-16 32 1 -45z"/>
<path d="M13476 7264 c-3 -8 -2 -12 3 -9 6 3 12 -9 14 -27 3 -29 4 -28 5 10 2
42 -10 56 -22 26z"/>
<path d="M14971 7238 c1 -40 2 -41 8 -13 l8 30 13 -27 c13 -28 30 -37 30 -18
0 6 -4 10 -9 10 -5 0 -14 14 -21 30 -18 43 -30 37 -29 -12z"/>
<path d="M15041 7253 c-10 -25 -10 -26 3 -10 14 18 15 17 19 -15 3 -30 4 -29
5 10 2 48 -9 55 -27 15z"/>
<path d="M13593 7259 c9 -5 18 -22 18 -37 2 -24 2 -25 6 -4 5 24 -12 52 -31
52 -6 0 -3 -5 7 -11z"/>
<path d="M13732 7258 c-22 -22 -7 -69 23 -68 5 0 2 5 -7 11 -10 5 -18 19 -18
29 0 10 8 24 18 29 9 6 12 11 7 11 -6 0 -16 -5 -23 -12z"/>
<path d="M13779 7268 c-5 -16 -2 -68 4 -68 4 0 7 16 7 35 0 19 -2 35 -5 35 -3
0 -5 -1 -6 -2z"/>
<path d="M13930 7255 c-14 -17 -5 -51 17 -60 14 -5 14 -3 -2 15 -17 19 -17 22
-3 36 21 21 41 8 35 -22 -2 -13 0 -24 4 -24 16 0 10 58 -7 64 -23 9 -30 8 -44
-9z"/>
<path d="M14020 7251 c-12 -23 -5 -47 18 -56 14 -5 14 -3 -1 13 -22 24 -12 56
14 49 11 -3 17 -1 13 4 -9 15 -33 10 -44 -10z"/>
<path d="M14106 7255 c-20 -21 -3 -64 26 -65 9 0 38 30 38 40 0 11 -29 40 -40
40 -5 0 -15 -7 -24 -15z m44 -11 c11 -12 10 -18 -4 -32 -16 -16 -18 -16 -31 2
-11 14 -12 23 -4 33 15 17 24 16 39 -3z"/>
<path d="M14220 7251 c-12 -23 -5 -47 18 -56 12 -5 12 -1 -3 16 -20 21 -20 21
4 40 17 14 19 19 7 19 -8 0 -20 -9 -26 -19z"/>
<path d="M15096 7254 c-9 -8 -16 -19 -16 -24 0 -8 28 -40 35 -40 13 0 35 14
35 22 0 6 -6 5 -15 -2 -8 -6 -19 -9 -25 -5 -18 11 -11 25 15 25 28 0 34 24 9
34 -21 8 -20 8 -38 -10z m39 -4 c3 -5 -3 -10 -15 -10 -12 0 -18 5 -15 10 3 6
10 10 15 10 5 0 12 -4 15 -10z"/>
<path d="M15171 7245 c-1 -31 14 -55 33 -55 5 0 2 6 -6 13 -9 6 -19 26 -21 42
l-4 30 -2 -30z"/>
<path d="M15383 7263 c-17 -6 -16 -48 1 -62 15 -12 46 -5 46 11 0 6 -6 5 -15
-2 -8 -6 -19 -9 -25 -5 -18 11 -11 25 15 25 28 0 34 24 9 34 -9 3 -16 6 -17 5
-1 0 -8 -3 -14 -6z m32 -13 c3 -5 -3 -10 -15 -10 -12 0 -18 5 -15 10 3 6 10
10 15 10 5 0 12 -4 15 -10z"/>
<path d="M15451 7235 c1 -40 1 -40 10 -10 5 18 5 33 -1 39 -7 7 -10 -4 -9 -29z"/>
<path d="M13522 7230 c0 -19 2 -27 5 -17 2 9 2 25 0 35 -3 9 -5 1 -5 -18z"/>
<path d="M13550 7230 c0 -16 2 -30 4 -30 2 0 6 14 8 30 3 17 1 30 -4 30 -4 0
-8 -13 -8 -30z"/>
<path d="M14272 7230 c0 -19 2 -27 5 -17 2 9 2 25 0 35 -3 9 -5 1 -5 -18z"/>
<path d="M15222 7230 c0 -19 2 -27 5 -17 2 9 2 25 0 35 -3 9 -5 1 -5 -18z"/>
<path d="M15540 7230 c0 -16 5 -30 10 -30 6 0 10 14 10 30 0 17 -4 30 -10 30
-5 0 -10 -13 -10 -30z"/>
<path d="M3615 7230 c-4 -12 -5 -24 -2 -27 3 -2 8 5 12 17 4 12 5 24 2 27 -3
2 -8 -5 -12 -17z"/>
<path d="M3780 7244 c0 -6 7 -19 16 -30 14 -18 14 -18 3 6 -14 31 -19 36 -19
24z"/>
<path d="M2847 7219 c-4 -16 -3 -18 9 -8 16 13 19 29 5 29 -5 0 -11 -9 -14
-21z"/>
<path d="M5055 7210 c3 -5 8 -10 11 -10 2 0 4 5 4 10 0 6 -5 10 -11 10 -5 0
-7 -4 -4 -10z"/>
<path d="M0 5560 l0 -1330 7935 0 7935 0 0 1330 0 1330 -7935 0 -7935 0 0
-1330z m6120 509 c0 -14 -10 -24 -31 -31 -28 -10 -30 -12 -13 -21 10 -6 36
-10 56 -8 l38 2 0 -84 0 -84 -70 -1 c-63 0 -72 2 -90 25 -27 34 -27 96 0 123
11 11 25 20 31 20 7 0 9 9 5 23 -4 19 0 27 27 40 42 21 47 21 47 -4z m578 -37
c3 -28 6 -31 22 -22 26 14 67 3 85 -23 23 -33 19 -94 -8 -121 -20 -20 -34 -23
-90 -23 l-67 0 0 114 0 114 28 -3 c22 -2 28 -8 30 -36z m1542 -76 l0 -114 -66
0 c-57 0 -70 3 -90 23 -30 30 -32 82 -4 118 26 32 50 40 84 28 25 -10 26 -9
26 24 0 31 3 35 25 35 l25 0 0 -114z m1788 98 c35 -24 27 -83 -13 -104 -16 -8
-31 -18 -33 -22 -2 -5 -15 -8 -28 -8 -20 0 -24 5 -24 30 0 25 4 30 24 30 32 0
55 27 31 36 -9 4 -20 1 -25 -5 -4 -7 -20 -11 -36 -9 -23 2 -30 -1 -32 -18 -2
-12 -14 -26 -28 -32 -21 -10 -24 -18 -24 -62 0 -50 -1 -51 -27 -48 -28 3 -28
4 -31 85 l-3 82 55 -1 c49 -1 58 2 84 30 34 36 74 42 110 16z m-4068 -86 c0
-106 -12 -128 -67 -128 -37 0 -73 29 -73 60 0 25 37 27 55 3 23 -31 35 -4 35
78 0 78 0 79 25 79 25 0 25 -1 25 -92z m427 30 c20 -17 16 -48 -6 -48 -11 0
-23 5 -26 10 -8 13 -35 13 -35 1 0 -5 13 -12 30 -16 27 -6 60 -37 60 -57 0
-20 -43 -48 -73 -48 -37 0 -77 24 -77 47 0 14 28 15 67 2 6 -2 11 1 12 6 1 6
-12 13 -28 17 -38 10 -55 32 -47 62 10 41 86 55 123 24z m186 11 l38 2 -3 -83
-3 -83 -65 -2 c-81 -2 -110 18 -110 79 0 66 37 105 85 91 11 -4 37 -5 58 -4z
m376 0 c35 -12 51 -35 51 -73 0 -25 -3 -26 -56 -26 -35 0 -53 -4 -49 -10 4 -6
26 -8 56 -4 56 8 63 -3 23 -35 -46 -36 -105 -27 -129 20 -27 52 -10 109 39
129 28 12 28 12 65 -1z m304 -21 c24 -29 22 -89 -5 -123 -18 -23 -26 -26 -60
-22 l-38 5 0 -44 c0 -42 -1 -44 -30 -44 l-30 0 0 125 0 126 40 -3 c22 -1 43 1
47 6 12 12 57 -3 76 -26z m153 22 c38 -15 53 -38 54 -83 0 -75 -83 -114 -142
-67 -50 38 -40 121 16 146 38 16 38 16 72 4z m389 -5 c60 -24 72 -89 26 -136
-22 -21 -39 -29 -66 -29 -98 0 -118 139 -25 173 23 9 28 8 65 -8z m623 -21
c12 -14 22 -36 22 -50 0 -23 -3 -24 -61 -24 -38 0 -58 -4 -54 -10 4 -6 26 -8
56 -4 54 7 59 1 27 -33 -29 -31 -87 -32 -115 0 -29 32 -35 56 -22 94 21 64
101 78 147 27z m244 9 c10 -9 18 -22 18 -30 0 -16 -51 -18 -68 -1 -19 19 -46
-14 -38 -46 6 -26 38 -36 51 -16 9 14 55 13 55 -2 0 -26 -43 -58 -80 -58 -89
0 -119 126 -40 168 30 15 76 8 102 -15z m157 16 c86 -30 60 -169 -32 -169 -52
0 -87 33 -87 80 0 54 8 70 44 86 38 16 36 16 75 3z m226 -10 c3 -4 20 -2 37 6
34 14 75 5 90 -18 4 -7 8 -42 8 -79 0 -66 -1 -68 -25 -68 -24 0 -25 3 -25 54
0 57 -15 81 -43 70 -12 -4 -17 -22 -19 -62 -3 -54 -5 -57 -30 -60 -28 -3 -28
-3 -28 56 0 46 -4 61 -16 66 -29 11 -44 -13 -44 -70 0 -51 -1 -54 -25 -54 -25
0 -25 1 -25 84 l0 85 48 3 c55 4 90 -1 97 -13z m308 -7 c10 -10 19 -31 20 -48
2 -29 1 -29 -56 -32 -34 -2 -55 -7 -52 -13 4 -5 27 -7 56 -3 54 7 59 1 27 -33
-33 -35 -89 -32 -122 8 -57 67 -7 158 79 144 16 -3 38 -14 48 -23z m153 18
c26 -10 53 -36 54 -52 0 -12 -55 -9 -67 3 -19 19 -43 2 -43 -31 0 -33 24 -50
43 -31 14 14 54 14 62 1 4 -6 -7 -23 -24 -39 -24 -23 -28 -30 -16 -35 18 -7
20 -37 3 -54 -18 -18 -78 -16 -78 3 0 9 10 15 23 16 12 0 16 3 10 6 -7 2 -13
13 -13 24 0 10 -5 19 -10 19 -6 0 -22 11 -35 25 -43 42 -27 123 29 145 28 12
30 12 62 0z m207 -1 l37 1 0 -84 0 -84 -70 0 c-63 -1 -71 1 -90 25 -47 60 -1
165 65 146 11 -3 37 -5 58 -4z m-2113 -25 c0 -14 -6 -24 -14 -24 -28 0 -46
-30 -46 -76 0 -40 -2 -44 -25 -44 -25 0 -25 1 -25 84 l0 84 55 0 c51 -1 55 -2
55 -24z m422 9 c14 -12 18 -32 18 -85 0 -66 -1 -68 -25 -68 -23 0 -25 3 -25
48 0 54 -19 88 -43 79 -12 -4 -17 -22 -19 -64 -3 -55 -4 -58 -30 -61 l-28 -3
0 85 0 85 67 0 c48 0 73 -5 85 -16z m1963 -123 c0 -30 -35 -40 -55 -15 -10 12
-10 18 0 30 20 25 55 15 55 -15z m-1770 -220 c3 -5 1 -10 -4 -10 -6 0 -11 5
-11 10 0 6 2 10 4 10 3 0 8 -4 11 -10z m1555 0 c0 -5 -5 -10 -11 -10 -5 0 -7
5 -4 10 3 6 8 10 11 10 2 0 4 -4 4 -10z m-4100 -10 c0 -5 -7 -10 -15 -10 -18
0 -20 -16 -2 -24 10 -5 10 -7 0 -12 -18 -8 -16 -24 2 -24 8 0 15 -4 15 -10 0
-5 -13 -10 -30 -10 -29 0 -30 2 -30 43 0 24 3 47 7 50 10 11 53 8 53 -3z
m3470 -41 l0 -50 -37 3 c-36 3 -38 5 -38 38 0 31 3 35 28 38 15 2 27 8 27 13
0 5 5 9 10 9 6 0 10 -23 10 -51z m520 41 c0 -5 6 -10 14 -10 7 0 17 -10 20
-22 l7 -23 11 23 c11 23 28 30 28 12 0 -17 -30 -70 -38 -70 -5 0 -16 15 -25
33 l-16 32 0 -32 c-1 -54 -21 -37 -21 17 0 28 5 50 10 50 6 0 10 -4 10 -10z
m465 -50 c1 -52 -21 -54 -27 -2 -6 46 0 68 15 53 6 -6 12 -29 12 -51z m125 25
c0 -19 -4 -35 -10 -35 -5 0 -10 16 -10 35 0 19 5 35 10 35 6 0 10 -16 10 -35z
m-4196 16 c4 -5 2 -21 -4 -35 -6 -17 -6 -26 0 -26 6 0 10 -4 10 -10 0 -11 -29
-14 -31 -2 -6 32 -7 59 -4 70 5 14 21 16 29 3z m1066 -2 c11 -8 12 -12 3 -16
-15 -6 -17 -43 -3 -43 6 0 10 -5 10 -11 0 -6 -8 -9 -17 -7 -10 2 -20 17 -24
38 -10 49 0 61 31 39z m225 -37 c1 -53 -21 -57 -28 -4 -5 41 -1 55 16 49 6 -2
11 -22 12 -45z m-1595 23 c11 -13 14 -13 26 2 10 15 17 16 42 7 21 -8 34 -8
40 -2 6 6 22 8 37 4 22 -6 26 -11 23 -39 -2 -25 -8 -33 -26 -35 -13 -2 -29 2
-37 8 -9 7 -15 8 -20 0 -10 -16 -53 -12 -64 8 -10 16 -10 16 -11 0 0 -29 -18
-21 -22 10 -4 37 -31 35 -39 -3 -6 -27 -7 -26 -8 13 -1 38 1 42 23 42 13 0 29
-7 36 -15z m248 3 c14 -14 16 -68 3 -68 -5 0 -11 12 -13 28 -4 37 -31 35 -39
-3 -6 -27 -7 -26 -8 13 -1 38 1 42 22 42 13 0 28 -5 35 -12z m112 3 c0 -6 -4
-13 -10 -16 -5 -3 -10 -17 -10 -31 0 -13 -4 -24 -10 -24 -5 0 -10 18 -10 40 0
33 3 40 20 40 11 0 20 -4 20 -9z m75 -31 c0 -32 -2 -35 -30 -35 -24 0 -31 5
-33 23 -5 30 16 54 42 50 17 -2 21 -10 21 -38z m115 25 c7 -9 10 -25 6 -41 -5
-20 -12 -25 -34 -22 -28 3 -40 32 -28 64 7 18 40 18 56 -1z m138 2 c14 -11 17
-67 3 -67 -5 0 -11 12 -13 27 -4 35 -26 41 -30 8 -4 -33 -20 -37 -25 -6 -4 30
-8 35 -22 26 -6 -3 -11 -17 -11 -31 0 -13 -4 -24 -10 -24 -5 0 -10 18 -10 40
l0 40 53 -2 c28 -1 58 -6 65 -11z m120 1 c14 -14 16 -68 3 -68 -5 0 -11 12
-13 27 -4 38 -27 41 -34 4 -4 -17 -10 -28 -15 -25 -10 6 -12 58 -2 67 11 11
48 8 61 -5z m92 -8 c16 -31 -4 -62 -38 -58 -19 2 -28 10 -30 26 -7 47 47 72
68 32z m65 0 c0 -8 3 -20 7 -25 11 -18 -8 -37 -32 -33 -13 1 -25 9 -28 17 -3
10 2 11 19 6 l24 -8 -24 20 c-15 12 -21 25 -17 32 11 17 51 10 51 -9z m83 1
c3 -9 -2 -11 -19 -7 -22 6 -22 6 -5 -5 17 -10 22 -9 34 9 10 15 25 22 48 22
33 0 34 -1 34 -40 0 -39 -1 -40 -34 -40 -19 0 -38 4 -41 10 -4 6 -13 5 -24 -2
-19 -12 -51 -5 -51 11 0 5 10 7 23 5 l22 -5 -22 10 c-23 10 -30 31 -16 45 11
11 46 2 51 -13z m197 9 c4 -6 13 -5 24 2 23 14 55 3 47 -17 -3 -8 -1 -17 4
-20 5 -3 6 -12 3 -21 -7 -18 -54 -15 -61 5 -3 10 2 11 19 6 13 -4 22 -6 19 -3
-38 31 -39 31 -50 4 -15 -40 -70 -29 -70 14 0 32 49 55 65 30z m215 -30 c0
-37 -2 -40 -28 -40 -31 0 -52 16 -52 40 0 24 21 40 52 40 26 0 28 -3 28 -40z
m88 -2 c2 -22 -1 -38 -7 -38 -6 0 -11 14 -11 30 0 20 -5 30 -15 30 -10 0 -15
-10 -15 -30 0 -16 -4 -30 -10 -30 -5 0 -10 18 -10 41 0 39 1 40 33 37 29 -3
32 -6 35 -40z m131 28 c16 -19 -3 -66 -27 -66 -22 0 -42 19 -42 40 0 36 47 53
69 26z m121 -6 c16 -31 -4 -62 -38 -58 -19 2 -28 10 -30 26 -7 47 47 72 68 32z
m130 -35 c0 -30 -4 -55 -10 -55 -5 0 -10 6 -10 14 0 9 -12 16 -27 18 -22 2
-29 9 -31 32 -4 33 10 46 51 46 26 0 27 -2 27 -55z m30 25 c0 -20 5 -30 15
-30 10 0 15 10 15 30 0 17 5 30 10 30 6 0 10 -18 10 -40 0 -37 -2 -40 -29 -40
-17 0 -31 6 -35 16 -9 25 -7 64 4 64 6 0 10 -13 10 -30z m128 18 c22 -22 14
-57 -14 -64 -38 -10 -61 17 -46 51 12 27 40 33 60 13z m132 -8 c15 -28 -4 -60
-35 -60 -16 0 -25 -6 -25 -16 0 -8 -3 -13 -7 -11 -5 3 -6 28 -5 56 4 49 5 51
33 51 18 0 32 -7 39 -20z m60 10 c0 -5 -4 -10 -10 -10 -5 0 -10 -11 -10 -24 0
-14 -4 -28 -10 -31 -6 -4 -10 10 -10 34 0 34 3 41 20 41 11 0 20 -4 20 -10z
m70 -5 c11 -14 14 -13 25 1 13 18 65 13 65 -6 0 -6 -11 -8 -25 -4 -21 5 -25 3
-25 -16 0 -19 4 -21 26 -16 19 5 25 3 22 -6 -7 -21 -50 -22 -66 -1 -12 17 -14
17 -23 1 -12 -22 -42 -23 -59 -3 -10 12 -10 21 -2 40 13 28 43 33 62 10z m120
-25 c0 -22 -4 -40 -10 -40 -5 0 -10 18 -10 40 0 22 5 40 10 40 6 0 10 -18 10
-40z m68 21 c3 -9 -2 -11 -19 -7 l-24 6 23 -11 c12 -7 22 -21 22 -31 0 -15 -6
-19 -27 -16 -14 2 -28 9 -31 17 -3 9 2 11 19 7 l24 -6 -22 11 c-36 19 -28 53
11 47 11 -2 21 -9 24 -17z m92 -21 c0 -37 -2 -40 -28 -40 -31 0 -52 16 -52 40
0 24 21 40 52 40 26 0 28 -3 28 -40z m121 24 c11 -14 13 -14 21 0 5 10 21 15
43 14 34 -1 35 -3 35 -40 0 -37 -1 -38 -35 -38 -24 0 -38 6 -42 16 -5 15 -7
15 -15 0 -5 -9 -20 -16 -33 -16 -16 0 -25 -6 -25 -15 0 -8 -4 -15 -10 -15 -5
0 -10 25 -10 55 0 54 1 55 29 55 16 0 34 -7 42 -16z m149 7 c0 -6 -4 -13 -10
-16 -5 -3 -10 -17 -10 -31 0 -13 -4 -24 -10 -24 -5 0 -10 18 -10 40 0 33 3 40
20 40 11 0 20 -4 20 -9z m90 -32 l0 -40 -37 3 c-31 2 -39 7 -41 26 -6 39 5 52
43 52 34 0 35 -1 35 -41z m104 25 c5 -12 1 -14 -17 -9 -22 7 -22 7 -2 -8 18
-14 21 -14 33 9 23 43 77 22 70 -28 -3 -26 -40 -37 -63 -18 -9 7 -15 8 -20 0
-9 -15 -55 -12 -55 4 0 9 8 13 23 10 12 -2 15 -1 7 2 -32 14 -41 26 -29 40 15
19 45 18 53 -2z m116 -14 c0 -20 5 -30 15 -30 10 0 15 10 15 30 0 17 5 30 10
30 6 0 10 -18 10 -40 0 -37 -2 -40 -29 -40 -17 0 -31 6 -35 16 -9 25 -7 64 4
64 6 0 10 -13 10 -30z m258 13 c6 -11 6 -28 1 -41 -12 -32 -62 -28 -67 6 -7
45 47 72 66 35z m69 6 c8 -8 17 -7 32 3 27 17 56 0 56 -32 0 -31 -29 -49 -55
-33 -12 8 -21 9 -25 3 -10 -16 -52 -12 -59 6 -5 12 -1 14 17 9 l22 -7 -22 16
c-13 10 -20 23 -17 31 7 18 35 20 51 4z m171 -31 c2 -22 -1 -38 -7 -38 -6 0
-11 14 -11 30 0 20 -5 30 -15 30 -10 0 -15 -10 -15 -30 0 -16 -4 -30 -10 -30
-5 0 -10 18 -10 41 0 39 1 40 33 37 29 -3 32 -6 35 -40z m40 20 l11 -23 7 23
c6 21 24 31 24 13 0 -22 -23 -71 -34 -71 -10 0 -36 52 -36 73 0 15 18 6 28
-15z m126 0 c15 -25 -3 -52 -37 -56 -21 -3 -28 2 -33 22 -12 49 43 76 70 34z
m146 -18 c0 -22 -4 -40 -10 -40 -5 0 -10 18 -10 40 0 22 5 40 10 40 6 0 10
-18 10 -40z m132 26 c11 -16 10 -66 -2 -66 -5 0 -10 14 -10 30 0 20 -5 30 -15
30 -10 0 -15 -10 -15 -30 0 -37 -18 -40 -22 -3 -4 36 -26 41 -30 7 -5 -42 -28
-43 -28 -1 0 18 3 36 6 40 10 10 109 4 116 -7z m85 3 c8 -8 13 -8 17 0 9 15
49 14 64 -1 14 -14 16 -68 3 -68 -5 0 -11 12 -13 27 -4 39 -27 41 -35 2 -5
-28 -8 -30 -18 -15 -11 15 -13 15 -19 1 -11 -31 -66 -11 -66 25 0 34 43 53 67
29z m223 -4 c10 -12 10 -21 1 -41 -15 -34 -64 -31 -69 4 -7 44 41 70 68 37z
m40 -55 c0 -5 -4 -10 -10 -10 -5 0 -10 5 -10 10 0 6 5 10 10 10 6 0 10 -4 10
-10z m75 -182 c40 -22 81 -66 94 -101 34 -90 -15 -203 -102 -236 -20 -8 -745
-11 -2389 -11 l-2360 0 -38 21 c-114 64 -122 227 -15 311 l30 23 1070 5 c588
3 1657 5 2375 5 1197 0 1307 -1 1335 -17z"/>
<path d="M6062 5961 c-8 -5 -12 -21 -10 -37 2 -23 8 -29 28 -29 18 0 26 6 28
23 3 22 -13 52 -27 52 -3 0 -12 -4 -19 -9z"/>
<path d="M6710 5956 c-6 -8 -10 -25 -8 -38 2 -17 10 -23 28 -23 18 0 26 6 28
23 3 22 -13 52 -28 52 -4 0 -13 -7 -20 -14z"/>
<path d="M8130 5956 c-17 -21 -8 -60 14 -64 18 -4 46 21 46 39 0 10 -29 39
-39 39 -5 0 -14 -7 -21 -14z"/>
<path d="M6496 5954 c-20 -19 -20 -25 -2 -50 12 -15 18 -17 33 -8 23 14 28 41
13 59 -16 19 -25 19 -44 -1z"/>
<path d="M6896 5961 c-7 -11 22 -23 35 -15 5 3 9 9 9 15 0 12 -37 12 -44 0z"/>
<path d="M7160 5956 c-17 -21 -8 -60 14 -64 37 -8 54 48 22 70 -16 11 -22 10
-36 -6z"/>
<path d="M7352 5958 c-27 -27 0 -77 34 -64 10 4 14 16 12 38 -3 35 -25 47 -46
26z"/>
<path d="M7742 5961 c-8 -5 -12 -21 -10 -37 4 -40 44 -47 54 -10 4 16 1 32 -6
41 -14 17 -20 18 -38 6z"/>
<path d="M8330 5960 c0 -5 12 -10 26 -10 14 0 23 4 19 10 -3 6 -15 10 -26 10
-10 0 -19 -4 -19 -10z"/>
<path d="M8758 5945 c-8 -19 -8 -28 2 -40 28 -33 66 -1 49 43 -11 29 -37 28
-51 -3z"/>
<path d="M9265 5960 c-4 -6 5 -10 19 -10 14 0 26 5 26 10 0 6 -9 10 -19 10
-11 0 -23 -4 -26 -10z"/>
<path d="M9640 5956 c-17 -21 -8 -60 14 -64 37 -8 54 48 22 70 -16 11 -22 10
-36 -6z"/>
<path d="M9080 5590 c0 -15 5 -20 18 -18 9 2 17 10 17 18 0 8 -8 16 -17 18
-13 2 -18 -3 -18 -18z"/>
<path d="M5790 5590 c0 -22 16 -26 40 -10 13 9 13 11 0 20 -24 16 -40 12 -40
-10z"/>
<path d="M5867 5596 c-7 -16 1 -26 20 -26 7 0 13 9 13 20 0 23 -25 27 -33 6z"/>
<path d="M6148 5603 c7 -3 16 -2 19 1 4 3 -2 6 -13 5 -11 0 -14 -3 -6 -6z"/>
<path d="M6148 5573 c7 -3 16 -2 19 1 4 3 -2 6 -13 5 -11 0 -14 -3 -6 -6z"/>
<path d="M6268 5603 c7 -3 16 -2 19 1 4 3 -2 6 -13 5 -11 0 -14 -3 -6 -6z"/>
<path d="M6268 5573 c7 -3 16 -2 19 1 4 3 -2 6 -13 5 -11 0 -14 -3 -6 -6z"/>
<path d="M6600 5590 c0 -15 5 -20 18 -18 9 2 17 10 17 18 0 8 -8 16 -17 18
-13 2 -18 -3 -18 -18z"/>
<path d="M6830 5590 c0 -11 7 -20 15 -20 8 0 15 9 15 20 0 11 -7 20 -15 20 -8
0 -15 -9 -15 -20z"/>
<path d="M6958 5573 c7 -3 16 -2 19 1 4 3 -2 6 -13 5 -11 0 -14 -3 -6 -6z"/>
<path d="M7155 5600 c-8 -14 3 -30 21 -30 8 0 14 9 14 20 0 21 -24 28 -35 10z"/>
<path d="M7500 5590 c0 -15 5 -20 18 -18 9 2 17 10 17 18 0 8 -8 16 -17 18
-13 2 -18 -3 -18 -18z"/>
<path d="M7620 5590 c0 -15 5 -20 18 -18 9 2 17 10 17 18 0 8 -8 16 -17 18
-13 2 -18 -3 -18 -18z"/>
<path d="M7808 5573 c7 -3 16 -2 19 1 4 3 -2 6 -13 5 -11 0 -14 -3 -6 -6z"/>
<path d="M7920 5590 c0 -11 7 -20 15 -20 8 0 15 9 15 20 0 11 -7 20 -15 20 -8
0 -15 -9 -15 -20z"/>
<path d="M8068 5573 c7 -3 16 -2 19 1 4 3 -2 6 -13 5 -11 0 -14 -3 -6 -6z"/>
<path d="M8325 5600 c-8 -14 3 -30 21 -30 8 0 14 9 14 20 0 21 -24 28 -35 10z"/>
<path d="M8455 5600 c-8 -14 3 -30 21 -30 8 0 14 9 14 20 0 21 -24 28 -35 10z"/>
<path d="M8540 5590 c0 -11 7 -20 15 -20 8 0 15 9 15 20 0 11 -7 20 -15 20 -8
0 -15 -9 -15 -20z"/>
<path d="M8687 5604 c-14 -14 -7 -35 11 -32 9 2 17 10 17 17 0 16 -18 25 -28
15z"/>
<path d="M8888 5603 c7 -3 16 -2 19 1 4 3 -2 6 -13 5 -11 0 -14 -3 -6 -6z"/>
<path d="M8888 5573 c7 -3 16 -2 19 1 4 3 -2 6 -13 5 -11 0 -14 -3 -6 -6z"/>
<path d="M9178 5603 c7 -3 16 -2 19 1 4 3 -2 6 -13 5 -11 0 -14 -3 -6 -6z"/>
<path d="M9178 5573 c7 -3 16 -2 19 1 4 3 -2 6 -13 5 -11 0 -14 -3 -6 -6z"/>
<path d="M9285 5590 c3 -5 8 -10 11 -10 2 0 4 5 4 10 0 6 -5 10 -11 10 -5 0
-7 -4 -4 -10z"/>
<path d="M9338 5573 c7 -3 16 -2 19 1 4 3 -2 6 -13 5 -11 0 -14 -3 -6 -6z"/>
<path d="M9570 5590 c0 -15 5 -20 18 -18 9 2 17 10 17 18 0 8 -8 16 -17 18
-13 2 -18 -3 -18 -18z"/>
<path d="M10160 5590 c0 -15 5 -20 18 -18 9 2 17 10 17 18 0 8 -8 16 -17 18
-13 2 -18 -3 -18 -18z"/>
<path d="M5529 5357 c-55 -37 -79 -81 -79 -147 0 -66 24 -110 79 -147 l34 -23
2376 2 2376 3 34 24 c93 66 92 214 -2 282 l-40 29 -2372 0 -2372 0 -34 -23z
m699 -92 c12 -15 18 -34 15 -46 -4 -13 3 -29 17 -44 13 -14 20 -28 16 -32 -4
-5 -17 3 -29 17 -16 18 -30 24 -50 22 -16 -2 -35 2 -43 9 -22 18 -17 65 8 83
31 22 43 20 66 -9z m1032 -40 c0 -25 -4 -45 -10 -45 -11 0 -14 73 -3 83 11 12
13 8 13 -38z m260 30 c-10 -12 -10 -15 4 -15 11 0 16 -9 16 -30 0 -26 -3 -30
-29 -30 -30 0 -47 22 -35 43 13 23 37 47 47 47 5 0 4 -7 -3 -15z m477 1 c-3
-8 1 -17 9 -20 9 -4 14 -15 12 -28 -2 -18 -9 -23 -33 -23 -23 0 -31 5 -33 23
-5 30 -22 28 -22 -3 0 -14 -4 -25 -10 -25 -5 0 -10 14 -10 31 0 26 3 30 23 27
13 -1 32 5 41 15 21 21 30 22 23 3z m360 -53 c-2 -16 -4 -5 -4 22 0 28 2 40 4
28 2 -13 2 -35 0 -50z m-1289 44 c6 -7 10 -29 9 -50 -2 -36 -10 -46 -22 -27
-3 6 -14 10 -24 10 -30 0 -46 26 -33 55 13 28 52 34 70 12z m1433 6 c5 -48 2
-73 -7 -73 -12 0 -23 48 -16 68 4 13 22 16 23 5z m266 -9 c4 -10 -1 -22 -10
-29 -10 -7 -17 -17 -17 -24 0 -19 -16 -12 -17 8 -1 11 5 22 13 25 9 3 13 10 9
15 -3 6 -13 7 -22 4 -11 -4 -14 -3 -9 5 11 18 46 14 53 -4z m-1647 -49 c8 0
17 11 21 25 7 24 7 23 8 -6 1 -22 -4 -33 -16 -36 -31 -8 -43 3 -42 35 1 30 1
30 8 7 4 -14 13 -25 21 -25z m110 15 c0 -27 -3 -30 -30 -30 -32 0 -47 18 -36
45 3 9 18 15 36 15 27 0 30 -3 30 -30z m120 20 c0 -5 -8 -7 -17 -4 -17 5 -17
5 0 -9 9 -8 17 -19 17 -25 0 -12 -21 -21 -37 -15 -22 8 -14 21 10 17 l22 -5
-22 10 c-31 14 -30 41 2 41 14 0 25 -4 25 -10z m111 -3 c-6 -6 -11 -19 -11
-29 0 -10 -4 -18 -10 -18 -5 0 -10 5 -10 11 0 6 -7 3 -16 -5 -19 -20 -54 -5
-54 23 0 26 7 30 62 29 37 0 47 -3 39 -11z m179 2 c0 -6 -10 -8 -22 -5 l-23 6
23 -11 c35 -19 22 -55 -15 -42 -20 7 -15 23 5 17 16 -5 16 -5 0 6 -27 17 -22
40 7 40 14 0 25 -5 25 -11z m37 -36 c6 -2 16 9 21 24 l10 28 1 -31 c1 -22 -4
-33 -16 -36 -31 -8 -43 3 -42 35 1 29 2 30 8 8 4 -14 12 -26 18 -28z m113 17
c0 -27 -3 -30 -30 -30 -32 0 -47 18 -36 45 3 9 18 15 36 15 27 0 30 -3 30 -30z
m110 0 c0 -28 -8 -35 -37 -31 -7 1 -13 -8 -13 -19 0 -12 -4 -18 -10 -15 -5 3
-10 26 -10 51 0 44 0 44 35 44 32 0 35 -2 35 -30z m169 14 c-9 -11 -9 -17 0
-28 9 -11 7 -13 -12 -13 -19 0 -24 5 -24 27 0 22 5 28 24 28 19 0 21 -3 12
-14z m28 -31 c-3 -10 -5 -2 -5 17 0 19 2 27 5 18 2 -10 2 -26 0 -35z m122 15
c-1 -30 -2 -30 -8 -9 -9 34 -31 39 -31 7 0 -14 -4 -26 -10 -26 -5 0 -10 12
-10 26 0 31 -23 28 -28 -4 -5 -33 -22 -26 -22 8 0 30 1 30 55 30 l55 0 -1 -32z
m81 3 c0 -34 -32 -48 -55 -24 -17 17 -17 16 -9 37 4 10 18 16 35 16 25 0 29
-4 29 -29z m139 5 c5 -27 -26 -48 -50 -35 -19 10 -25 39 -12 53 14 14 58 1 62
-18z m18 -23 c-3 -10 -5 -2 -5 17 0 19 2 27 5 18 2 -10 2 -26 0 -35z m83 22
c0 -14 5 -25 10 -25 6 0 10 11 10 25 0 14 5 25 10 25 6 0 10 -13 10 -30 0 -27
-3 -30 -30 -30 -27 0 -30 3 -30 30 0 17 5 30 10 30 6 0 10 -11 10 -25z m83 18
c-7 -2 -13 -16 -13 -29 0 -13 -4 -24 -10 -24 -5 0 -10 14 -10 30 0 25 4 30 23
29 12 0 16 -3 10 -6z m77 -22 c0 -34 -32 -48 -55 -24 -17 17 -17 16 -9 37 4
10 18 16 35 16 25 0 29 -4 29 -29z"/>
<path d="M6166 5255 c-18 -18 -11 -41 14 -55 14 -7 23 -6 34 6 20 19 20 29 0
48 -19 20 -29 20 -48 1z"/>
<path d="M7494 5219 c-10 -17 13 -36 27 -22 12 12 4 33 -11 33 -5 0 -12 -5
-16 -11z"/>
<path d="M7970 5210 c0 -11 7 -20 15 -20 8 0 15 9 15 20 0 11 -7 20 -15 20 -8
0 -15 -9 -15 -20z"/>
<path d="M7021 5240 c-19 -11 -9 -45 14 -45 13 0 21 8 23 21 3 23 -17 37 -37
24z"/>
<path d="M7180 5210 c0 -11 7 -20 15 -20 8 0 15 9 15 20 0 11 -7 20 -15 20 -8
0 -15 -9 -15 -20z"/>
<path d="M7388 5223 c7 -3 16 -2 19 1 4 3 -2 6 -13 5 -11 0 -14 -3 -6 -6z"/>
<path d="M7388 5193 c7 -3 16 -2 19 1 4 3 -2 6 -13 5 -11 0 -14 -3 -6 -6z"/>
<path d="M7740 5210 c0 -11 7 -20 15 -20 8 0 15 9 15 20 0 11 -7 20 -15 20 -8
0 -15 -9 -15 -20z"/>
<path d="M7854 5219 c-10 -17 13 -36 27 -22 12 12 4 33 -11 33 -5 0 -12 -5
-16 -11z"/>
<path d="M8254 5219 c-10 -17 13 -36 27 -22 12 12 4 33 -11 33 -5 0 -12 -5
-16 -11z"/>
<path d="M8398 5223 c7 -3 16 -2 19 1 4 3 -2 6 -13 5 -11 0 -14 -3 -6 -6z"/>
<path d="M8398 5193 c7 -3 16 -2 19 1 4 3 -2 6 -13 5 -11 0 -14 -3 -6 -6z"/>
<path d="M8654 5219 c-10 -17 13 -36 27 -22 12 12 4 33 -11 33 -5 0 -12 -5
-16 -11z"/>
<path d="M4061 3166 c-9 -11 -8 -18 4 -30 20 -20 29 -20 45 -1 10 12 10 18 0
30 -16 19 -34 19 -49 1z"/>
<path d="M5266 2945 c-3 -9 -3 -571 1 -1250 l6 -1235 29 0 28 0 0 1250 0 1250
-29 0 c-17 0 -31 -6 -35 -15z"/>
<path d="M6882 2787 l-142 -142 0 -90 0 -90 143 -143 c78 -78 146 -142 150
-142 4 0 7 37 7 83 l0 82 -105 105 -105 105 105 105 105 105 0 83 c0 45 -3 82
-8 82 -4 0 -71 -64 -150 -143z"/>
<path d="M3255 2879 c-3 -4 2 -6 10 -5 21 3 28 13 10 13 -9 0 -18 -4 -20 -8z"/>
<path d="M3236 2823 c-6 -14 -5 -15 5 -6 7 7 10 15 7 18 -3 3 -9 -2 -12 -12z"/>
<path d="M12870 2135 l0 -695 670 0 670 0 0 695 0 695 -670 0 -670 0 0 -695z
m779 59 c50 -111 91 -206 91 -212 0 -7 -15 -12 -35 -12 -31 0 -36 4 -50 38
-29 73 -21 69 -148 64 -46 -2 -48 -3 -70 -49 -20 -43 -26 -48 -60 -51 -20 -2
-37 0 -37 3 0 6 174 396 192 429 13 24 4 40 117 -210z"/>
<path d="M13531 2249 c-5 -13 -16 -41 -25 -63 -9 -21 -16 -40 -16 -42 0 -2 24
-4 54 -4 l55 0 -26 63 c-31 76 -30 75 -42 46z"/>
<path d="M3175 2800 c-16 -17 -16 -20 -3 -15 9 4 19 13 22 21 7 19 2 18 -19
-6z"/>
<path d="M1730 2724 c-21 -57 -19 -83 4 -51 16 21 56 23 56 2 0 -8 7 -15 15
-15 19 0 19 -2 -6 64 -12 31 -28 56 -35 56 -7 0 -22 -25 -34 -56z m50 -6 c0
-5 -7 -8 -15 -8 -17 0 -18 2 -9 25 5 13 8 14 15 3 5 -7 9 -16 9 -20z"/>
<path d="M2144 2764 c3 -9 6 -36 6 -60 0 -24 5 -44 10 -44 6 0 10 10 10 23 0
31 15 51 34 44 10 -4 16 -18 16 -37 0 -19 5 -30 14 -30 11 0 12 8 6 34 -10 48
-19 59 -42 53 -14 -4 -22 0 -25 14 -3 10 -12 19 -20 19 -10 0 -13 -6 -9 -16z"/>
<path d="M2414 2764 c3 -9 6 -36 6 -60 0 -24 5 -44 10 -44 6 0 10 11 10 25 0
14 5 25 10 25 6 0 16 -11 22 -25 6 -14 17 -25 25 -25 17 0 16 5 -3 35 -14 21
-14 26 1 54 12 25 13 31 2 31 -8 0 -19 -11 -25 -25 -6 -14 -16 -25 -22 -25 -5
0 -10 11 -10 25 0 16 -6 25 -16 25 -11 0 -14 -5 -10 -16z"/>
<path d="M2632 2761 c-10 -27 -3 -101 9 -101 5 0 9 3 10 8 0 4 3 18 5 32 2 14
5 34 7 44 1 11 8 21 15 24 9 3 12 -12 12 -52 0 -44 3 -56 16 -56 8 0 13 4 9 9
-3 5 0 13 6 17 6 4 16 -1 21 -10 5 -9 16 -16 25 -16 14 0 14 3 -3 21 -15 17
-16 23 -6 40 10 16 10 19 -3 19 -8 0 -15 -4 -15 -10 0 -5 -6 -10 -13 -10 -7 0
-13 12 -12 28 0 24 -4 27 -38 30 -30 3 -39 -1 -45 -17z"/>
<path d="M3574 2754 c3 -9 6 -29 6 -45 0 -24 4 -29 25 -29 14 0 25 4 25 9 0 5
-9 7 -20 4 -18 -5 -20 0 -20 36 0 23 -5 41 -11 41 -6 0 -8 -7 -5 -16z"/>
<path d="M3720 2756 c0 -7 -9 -16 -20 -19 -14 -3 -20 -14 -20 -31 0 -23 4 -26
33 -26 32 0 32 0 29 45 -2 25 -8 45 -13 45 -5 0 -9 -6 -9 -14z m3 -41 c8 -18
-11 -31 -25 -17 -11 11 -3 32 12 32 4 0 10 -7 13 -15z"/>
<path d="M5463 2763 c11 -3 17 -14 17 -34 0 -26 -3 -29 -21 -24 -16 5 -20 3
-17 -6 3 -8 13 -14 24 -14 15 0 20 8 22 43 3 38 1 42 -20 41 -17 -1 -18 -3 -5
-6z"/>
<path d="M5720 2754 c0 -9 10 -24 23 -35 l22 -18 -24 -1 c-19 0 -22 -3 -14
-11 15 -15 43 -4 43 17 0 8 -10 25 -22 36 l-23 20 23 -5 c12 -3 22 -1 22 4 0
5 -11 9 -25 9 -16 0 -25 -6 -25 -16z"/>
<path d="M6107 2730 c-15 -40 -11 -50 11 -28 9 9 16 7 32 -7 11 -10 20 -15 20
-12 0 15 -33 87 -40 87 -4 0 -14 -18 -23 -40z m33 5 c0 -8 -4 -15 -10 -15 -5
0 -7 7 -4 15 4 8 8 15 10 15 2 0 4 -7 4 -15z"/>
<path d="M3122 2748 c-7 -7 -12 -16 -12 -21 0 -5 7 -1 16 8 9 9 14 18 12 20
-2 3 -10 -1 -16 -7z"/>
<path d="M6020 2732 c0 -16 6 -35 13 -41 11 -9 13 -4 12 26 -3 45 -25 58 -25
15z"/>
<path d="M6417 2753 c-10 -16 6 -63 20 -63 12 0 13 3 4 14 -6 7 -9 20 -5 29 6
16 -11 33 -19 20z"/>
<path d="M1837 2743 c-7 -6 7 -123 14 -123 5 0 9 9 9 21 0 15 4 19 16 15 26
-10 54 12 54 44 0 16 -6 32 -12 37 -11 7 -76 12 -81 6z m71 -37 c2 -10 -1 -23
-7 -29 -16 -16 -44 14 -35 37 8 22 38 17 42 -8z"/>
<path d="M1957 2743 c-15 -14 -6 -23 18 -17 15 4 25 2 25 -5 0 -6 -8 -11 -19
-11 -10 0 -24 -7 -31 -16 -20 -23 6 -43 47 -37 30 5 31 7 26 42 -4 20 -11 39
-17 43 -14 10 -41 10 -49 1z m43 -52 c0 -12 -20 -25 -27 -18 -7 7 6 27 18 27
5 0 9 -4 9 -9z"/>
<path d="M2068 2739 c-25 -14 -23 -65 2 -79 22 -12 60 -5 60 11 0 6 -8 8 -17
5 -25 -8 -46 8 -41 30 3 14 11 18 32 17 23 -2 26 0 16 13 -14 16 -28 17 -52 3z"/>
<path d="M2278 2739 c-40 -23 -3 -98 41 -84 12 3 21 11 21 17 0 5 -7 8 -15 4
-18 -6 -45 2 -45 15 0 5 14 9 30 9 31 0 39 17 18 38 -14 14 -27 15 -50 1z m42
-19 c0 -5 -7 -10 -15 -10 -8 0 -15 5 -15 10 0 6 7 10 15 10 8 0 15 -4 15 -10z"/>
<path d="M2537 2743 c-15 -15 -5 -23 19 -17 19 5 25 4 20 -5 -4 -6 -13 -11
-20 -11 -8 0 -19 -7 -26 -16 -20 -23 6 -43 47 -37 30 5 32 7 26 37 -3 17 -10
37 -16 44 -10 13 -39 16 -50 5z m43 -52 c0 -14 -18 -23 -31 -15 -8 4 -7 9 2
15 18 11 29 11 29 0z"/>
<path d="M2803 2743 c-24 -9 -13 -23 12 -17 15 4 25 2 25 -4 0 -6 -10 -12 -22
-14 -24 -3 -37 -36 -19 -47 6 -4 27 -5 47 -3 25 3 33 7 25 15 -6 6 -11 23 -11
38 0 32 -24 46 -57 32z m37 -52 c0 -12 -20 -25 -27 -18 -7 7 6 27 18 27 5 0 9
-4 9 -9z"/>
<path d="M5514 2738 c-5 -8 -2 -9 9 -5 10 3 17 2 17 -3 0 -6 -7 -10 -16 -10
-28 0 -11 -34 19 -37 25 -2 27 1 21 25 -4 15 -9 30 -11 35 -6 11 -31 8 -39 -5z
m36 -32 c0 -3 -4 -8 -10 -11 -5 -3 -10 -1 -10 4 0 6 5 11 10 11 6 0 10 -2 10
-4z"/>
<path d="M5655 2741 c-3 -7 0 -8 9 -5 9 3 16 1 16 -5 0 -6 -7 -11 -15 -11 -8
0 -15 -9 -15 -20 0 -15 6 -19 25 -18 22 2 26 7 23 33 -3 30 -30 46 -43 26z
m25 -41 c0 -5 -4 -10 -10 -10 -5 0 -10 5 -10 10 0 6 5 10 10 10 6 0 10 -4 10
-10z"/>
<path d="M5791 2732 c-17 -32 25 -72 44 -41 4 6 0 9 -11 7 -13 -2 -19 3 -19
17 0 14 6 19 19 17 11 -2 15 1 11 7 -10 17 -33 13 -44 -7z"/>
<path d="M5857 2716 c7 -38 13 -46 13 -19 0 20 29 54 31 37 1 -5 2 -13 4 -19
1 -5 3 -16 3 -23 1 -7 6 -11 10 -8 5 3 7 19 4 35 -4 27 -8 30 -38 29 -31 -1
-33 -3 -27 -32z"/>
<path d="M5940 2703 c0 -24 5 -43 10 -43 6 0 10 4 10 9 0 5 9 11 21 14 16 4
20 12 17 34 -2 23 -8 28 -30 28 -26 1 -28 -2 -28 -42z m46 1 c-5 -13 -10 -14
-18 -6 -6 6 -8 18 -4 28 5 13 10 14 18 6 6 -6 8 -18 4 -28z"/>
<path d="M6184 2739 c-3 -6 -1 -16 5 -22 15 -15 14 -30 -1 -21 -7 4 -8 3 -4
-4 10 -17 26 -15 33 4 3 9 0 20 -8 25 -10 6 -10 9 -1 9 6 0 12 5 12 10 0 13
-27 13 -36 -1z"/>
<path d="M6240 2730 c0 -11 5 -20 10 -20 6 0 10 -5 10 -11 0 -5 -4 -7 -10 -4
-5 3 -10 1 -10 -4 0 -17 30 -13 37 5 3 9 0 20 -8 25 -11 7 -11 9 -1 9 7 0 10
5 7 10 -11 18 -35 11 -35 -10z"/>
<path d="M6300 2736 c-24 -29 17 -73 43 -47 9 9 8 11 -4 6 -10 -4 -20 -2 -23
3 -3 5 4 12 15 15 12 3 19 12 17 19 -7 19 -33 21 -48 4z"/>
<path d="M6367 2715 c7 -37 13 -45 13 -17 0 11 5 24 10 27 16 10 11 21 -9 21
-16 0 -19 -5 -14 -31z"/>
<path d="M6460 2721 c0 -16 5 -33 10 -36 6 -4 10 6 10 24 0 16 -4 33 -10 36
-6 4 -10 -6 -10 -24z"/>
<path d="M6570 2736 c-27 -33 18 -72 48 -42 13 13 14 20 6 34 -15 23 -38 26
-54 8z m39 -33 c-15 -18 -34 -1 -25 22 5 14 9 15 21 5 12 -10 13 -16 4 -27z"/>
<path d="M3150 2729 c0 -5 5 -7 10 -4 6 3 10 8 10 11 0 2 -4 4 -10 4 -5 0 -10
-5 -10 -11z"/>
<path d="M3648 2710 c2 -16 7 -30 11 -30 4 0 6 14 3 30 -2 17 -7 30 -11 30 -4
0 -6 -13 -3 -30z"/>
<path d="M3764 2726 c-10 -25 3 -46 28 -45 17 1 18 2 6 6 -25 6 -22 23 3 23
27 0 19 24 -9 28 -13 2 -25 -3 -28 -12z"/>
<path d="M3830 2710 c0 -16 5 -30 10 -30 6 0 10 8 10 18 0 10 5 23 12 30 9 9
7 12 -10 12 -18 0 -22 -6 -22 -30z"/>
<path d="M3894 2731 c18 -7 18 -8 3 -14 -29 -11 -20 -37 11 -37 26 0 28 3 24
30 -4 25 -9 30 -31 29 -22 0 -23 -2 -7 -8z m16 -31 c0 -5 -5 -10 -11 -10 -5 0
-7 5 -4 10 3 6 8 10 11 10 2 0 4 -4 4 -10z"/>
<path d="M3950 2710 c0 -16 5 -30 10 -30 6 0 10 11 10 25 0 16 6 25 15 25 9 0
15 -9 15 -25 0 -14 4 -25 8 -25 5 0 7 14 4 30 -4 25 -9 30 -33 30 -26 0 -29
-4 -29 -30z"/>
<path d="M4037 2733 c-12 -11 -8 -40 8 -53 8 -7 12 -16 9 -21 -3 -5 0 -9 5 -9
6 0 11 7 11 15 0 8 6 15 13 16 6 1 1 4 -13 8 -14 4 -25 13 -25 21 0 8 11 17
25 21 l25 7 -26 1 c-14 1 -29 -2 -32 -6z"/>
<path d="M4124 2731 c19 -7 19 -8 -2 -13 -33 -9 -28 -38 6 -38 26 0 28 3 24
30 -3 23 -9 30 -26 29 -20 0 -20 -1 -2 -8z m16 -31 c0 -5 -7 -10 -16 -10 -8 0
-12 5 -9 10 3 6 10 10 16 10 5 0 9 -4 9 -10z"/>
<path d="M4206 2725 c-10 -26 5 -45 33 -44 23 2 24 2 4 6 -31 6 -29 23 2 23
18 0 23 4 19 15 -4 8 -16 15 -29 15 -13 0 -25 -7 -29 -15z m41 -1 c-3 -3 -12
-4 -19 -1 -8 3 -5 6 6 6 11 1 17 -2 13 -5z"/>
<path d="M4280 2710 c0 -16 5 -30 10 -30 6 0 10 9 10 19 0 31 17 33 25 3 8
-27 8 -27 14 -4 8 30 25 33 29 5 2 -13 7 -23 11 -23 4 0 6 14 3 30 -4 29 -6
30 -53 30 -48 0 -49 -1 -49 -30z"/>
<path d="M5586 2720 c10 -41 21 -44 38 -11 9 17 12 31 7 31 -5 0 -12 -7 -15
-17 -6 -14 -8 -14 -22 3 -14 18 -15 18 -8 -6z"/>
<path d="M6506 2708 c16 -30 17 -31 30 -13 8 10 14 26 14 34 -1 13 -3 13 -14
-2 -12 -15 -14 -16 -20 -2 -3 8 -10 15 -16 15 -6 0 -4 -13 6 -32z"/>
<path d="M3065 2689 c-4 -6 -5 -12 -2 -15 2 -3 7 2 10 11 7 17 1 20 -8 4z"/>
<path d="M3578 2590 c5 -49 15 -57 47 -36 43 28 27 76 -25 76 -24 0 -25 -3
-22 -40z m47 0 c0 -16 -6 -26 -17 -28 -14 -3 -18 3 -18 28 0 25 4 31 18 28 11
-2 17 -12 17 -28z"/>
<path d="M3664 2596 c-13 -34 25 -71 49 -47 8 8 5 11 -11 11 -12 0 -22 5 -22
10 0 6 9 10 21 10 27 0 19 24 -9 28 -13 2 -25 -3 -28 -12z"/>
<path d="M3734 2598 c-4 -6 1 -17 10 -24 16 -12 16 -13 -1 -17 -17 -4 -17 -4
0 -12 30 -13 44 11 21 36 -10 13 -13 19 -6 15 6 -4 12 -2 12 3 0 15 -27 14
-36 -1z"/>
<path d="M3794 2594 c3 -9 6 -22 6 -30 0 -8 4 -14 8 -14 5 0 7 14 4 30 -2 17
-9 30 -14 30 -6 0 -7 -7 -4 -16z"/>
<path d="M3837 2603 c-14 -14 -6 -45 13 -50 25 -7 26 -20 3 -27 -11 -3 -7 -4
7 -3 20 2 26 8 28 32 5 40 22 58 22 22 0 -33 17 -36 22 -4 2 12 8 22 13 22 6
0 11 -10 13 -22 2 -13 7 -23 11 -23 4 0 6 14 3 30 -4 30 -5 30 -66 30 -35 0
-66 -3 -69 -7z m39 -14 c10 -17 -13 -36 -27 -22 -12 12 -4 33 11 33 5 0 12 -5
16 -11z"/>
<path d="M1876 2584 c-22 -22 -20 -30 14 -56 36 -26 39 -41 8 -36 -13 1 -24
-2 -25 -7 -2 -6 12 -10 30 -10 27 0 32 4 35 27 2 19 -2 28 -17 33 -10 3 -25
12 -31 20 -10 12 -9 16 5 21 10 4 21 1 25 -7 5 -7 13 -10 17 -5 8 7 -23 36
-38 36 -4 0 -15 -7 -23 -16z"/>
<path d="M2484 2575 c3 -9 6 -37 6 -61 l0 -45 38 3 37 3 0 55 0 55 -44 3 c-37
3 -43 1 -37 -13z m61 -16 c0 -7 -8 -15 -17 -17 -18 -3 -25 18 -11 32 10 10 28
1 28 -15z m5 -55 c0 -8 -9 -14 -20 -14 -19 0 -27 19 -14 33 10 9 34 -4 34 -19z"/>
<path d="M2823 2565 c-6 -7 -8 -16 -3 -21 5 -5 10 -22 12 -39 2 -21 9 -31 23
-33 16 -3 18 -1 8 9 -15 15 -17 59 -3 59 16 0 12 14 -8 26 -13 8 -20 8 -29 -1z"/>
<path d="M1722 2548 c-15 -15 -16 -50 0 -66 15 -15 68 -16 68 -1 0 6 -8 8 -19
4 -10 -3 -24 1 -31 10 -11 13 -8 15 19 15 28 0 32 3 29 23 -3 25 -45 36 -66
15z m48 -12 c0 -11 -19 -15 -25 -6 -3 5 1 10 9 10 9 0 16 -2 16 -4z"/>
<path d="M1964 2543 c3 -8 6 -37 6 -64 0 -27 5 -49 10 -49 6 0 10 9 10 20 0
14 7 20 23 20 29 0 47 18 47 46 0 30 -18 42 -63 42 -30 0 -37 -3 -33 -15z m73
-19 c7 -19 -20 -49 -36 -40 -12 8 -15 39 -4 49 12 12 33 7 40 -9z"/>
<path d="M2075 2542 c3 -7 5 -27 5 -43 0 -16 5 -29 10 -29 6 0 10 11 10 23 0
27 33 62 49 52 6 -3 11 -22 11 -41 0 -21 5 -34 13 -34 8 0 11 14 9 45 l-4 44
-54 -1 c-43 -1 -54 -5 -49 -16z"/>
<path d="M2204 2544 c3 -9 6 -29 6 -45 0 -40 18 -37 22 4 2 24 8 32 23 32 15
0 21 -8 23 -32 2 -20 9 -33 17 -33 11 0 12 7 1 43 -11 40 -13 42 -55 44 -35 1
-42 -1 -37 -13z"/>
<path d="M2331 2547 c-26 -26 -6 -77 31 -77 10 0 18 -4 18 -10 0 -5 -12 -10
-27 -10 -20 0 -24 -3 -16 -11 7 -7 23 -9 37 -5 20 5 26 14 31 44 3 20 8 47 10
58 4 19 0 22 -34 22 -21 0 -43 -4 -50 -11z m52 -19 c6 -19 -3 -38 -18 -38 -18
0 -28 17 -21 35 7 18 33 20 39 3z"/>
<path d="M2606 2544 c-33 -32 -13 -74 36 -74 25 0 48 23 48 49 0 16 -30 41
-50 41 -10 0 -26 -7 -34 -16z m61 -20 c3 -8 -2 -23 -11 -32 -15 -15 -17 -15
-32 0 -21 21 -11 48 16 48 11 0 23 -7 27 -16z"/>
<path d="M2716 2544 c-30 -29 -10 -74 32 -74 33 0 52 16 52 45 0 43 -53 61
-84 29z m61 -20 c3 -8 -2 -23 -11 -32 -16 -16 -18 -16 -31 1 -7 11 -11 25 -8
33 7 19 42 18 50 -2z"/>
<path d="M3095 2400 c-3 -5 -1 -10 4 -10 6 0 11 5 11 10 0 6 -2 10 -4 10 -3 0
-8 -4 -11 -10z"/>
<path d="M3140 2349 c0 -5 5 -7 10 -4 6 3 10 8 10 11 0 2 -4 4 -10 4 -5 0 -10
-5 -10 -11z"/>
<path d="M6478 2263 c9 -3 10 -9 2 -18 -7 -9 -5 -16 7 -26 16 -13 17 -12 5 3
-9 11 -10 18 -2 23 13 8 3 25 -13 24 -8 0 -8 -2 1 -6z"/>
<path d="M6258 2233 c6 -2 10 -9 7 -14 -4 -5 1 -6 9 -3 20 8 11 24 -12 23 -11
0 -12 -2 -4 -6z"/>
<path d="M8600 2210 c0 -5 5 -10 10 -10 6 0 10 5 10 10 0 6 -4 10 -10 10 -5 0
-10 -4 -10 -10z"/>
<path d="M8010 2155 c0 -30 5 -55 10 -55 6 0 10 25 10 55 0 30 -4 55 -10 55
-5 0 -10 -25 -10 -55z"/>
<path d="M8254 2188 c3 -13 6 -38 6 -55 0 -18 5 -33 10 -33 6 0 10 25 10 55 0
44 -3 55 -16 55 -12 0 -15 -6 -10 -22z"/>
<path d="M8300 2201 c0 -6 5 -13 10 -16 6 -3 10 -24 10 -46 0 -21 5 -39 10
-39 6 0 10 25 10 55 0 48 -2 55 -20 55 -11 0 -20 -4 -20 -9z"/>
<path d="M8800 2157 l0 -53 36 -1 c28 -1 38 4 46 23 14 29 -4 54 -38 54 -15 0
-24 6 -24 15 0 8 -4 15 -10 15 -5 0 -10 -24 -10 -53z m60 -17 c0 -23 -25 -27
-33 -6 -7 16 1 26 20 26 7 0 13 -9 13 -20z"/>
<path d="M7606 2154 c-9 -26 -13 -50 -10 -53 4 -3 9 0 11 7 5 14 53 17 53 2 0
-5 7 -10 15 -10 12 0 12 7 -4 48 -25 63 -45 65 -65 6z m44 -5 c0 -5 -4 -9 -10
-9 -5 0 -10 7 -10 16 0 8 5 12 10 9 6 -3 10 -10 10 -16z"/>
<path d="M8520 2150 c0 -27 5 -50 10 -50 6 0 10 9 10 20 0 11 7 20 15 20 8 0
15 5 15 10 0 6 -7 10 -15 10 -23 0 -18 19 8 30 20 8 19 9 -10 9 -33 1 -33 1
-33 -49z"/>
<path d="M6200 2186 c0 -2 7 -7 16 -10 8 -3 12 -2 9 4 -6 10 -25 14 -25 6z"/>
<path d="M7700 2141 c0 -51 27 -58 32 -8 2 17 8 32 13 32 6 0 11 -15 13 -32 2
-18 8 -33 13 -33 6 0 9 17 7 38 -3 35 -5 37 -40 40 l-38 3 0 -40z"/>
<path d="M7807 2173 c-24 -24 8 -81 39 -69 10 4 14 2 11 -6 -2 -8 -16 -12 -32
-10 -25 3 -27 1 -16 -12 16 -19 42 -21 59 -4 7 7 12 34 12 60 0 48 0 48 -33
48 -19 0 -37 -3 -40 -7z m51 -30 c-2 -10 -10 -18 -18 -18 -8 0 -16 8 -18 18
-2 12 3 17 18 17 15 0 20 -5 18 -17z"/>
<path d="M7906 2153 c3 -16 7 -33 9 -39 2 -7 20 -12 39 -12 35 0 36 1 36 39 0
28 -4 39 -15 39 -10 0 -15 -10 -15 -30 0 -20 -5 -30 -15 -30 -10 0 -15 10 -15
30 0 20 -5 30 -15 30 -12 0 -14 -7 -9 -27z"/>
<path d="M8057 2173 c-12 -11 -8 -50 6 -61 6 -5 24 -10 40 -10 25 0 27 4 27
39 0 38 -1 39 -33 39 -19 0 -37 -3 -40 -7z m51 -30 c-2 -10 -10 -18 -18 -18
-8 0 -16 8 -18 18 -2 12 3 17 18 17 15 0 20 -5 18 -17z"/>
<path d="M8150 2140 c0 -29 4 -40 15 -40 10 0 15 10 15 30 0 17 5 30 10 30 6
0 10 5 10 10 0 6 -11 10 -25 10 -22 0 -25 -4 -25 -40z"/>
<path d="M8394 2155 c-4 -15 -1 -32 7 -41 14 -18 50 -15 57 5 3 9 -2 11 -17 6
-12 -4 -21 -2 -21 4 0 6 12 11 26 11 20 0 25 4 20 16 -3 9 -6 18 -6 20 0 2
-13 4 -30 4 -23 0 -31 -5 -36 -25z m51 5 c3 -5 -3 -10 -15 -10 -12 0 -18 5
-15 10 3 6 10 10 15 10 5 0 12 -4 15 -10z"/>
<path d="M8600 2140 c0 -22 5 -40 10 -40 6 0 10 18 10 40 0 22 -4 40 -10 40
-5 0 -10 -18 -10 -40z"/>
<path d="M8650 2139 c0 -21 5 -39 10 -39 6 0 10 14 10 30 0 17 5 30 10 30 19
0 10 16 -10 17 -17 2 -20 -4 -20 -38z"/>
<path d="M8710 2165 c-10 -12 -10 -21 -2 -40 13 -28 43 -33 63 -9 11 13 9 14
-14 9 -17 -5 -27 -3 -27 4 0 6 12 11 26 11 19 0 25 5 22 18 -4 23 -51 28 -68
7z m45 -5 c3 -5 -1 -10 -9 -10 -9 0 -16 5 -16 10 0 6 4 10 9 10 6 0 13 -4 16
-10z"/>
<path d="M8907 2173 c-12 -11 -8 -50 6 -61 7 -6 26 -10 42 -9 30 2 30 4 26 62
-1 15 -61 22 -74 8z m51 -30 c-2 -10 -10 -18 -18 -18 -8 0 -16 8 -18 18 -2 12
3 17 18 17 15 0 20 -5 18 -17z"/>
<path d="M9010 2160 c0 -11 6 -20 14 -20 8 0 18 -5 22 -12 5 -8 0 -9 -15 -5
-14 3 -21 1 -18 -6 2 -7 14 -12 28 -12 31 0 39 34 10 42 -12 3 -21 10 -21 15
0 5 10 6 21 3 15 -5 19 -4 15 4 -4 6 -18 11 -32 11 -17 0 -24 -5 -24 -20z"/>
<path d="M9097 2174 c-4 -4 -7 -20 -7 -35 0 -30 24 -44 54 -33 26 10 19 25 -9
18 -15 -4 -25 -2 -25 5 0 6 12 11 26 11 19 0 25 5 22 18 -3 17 -48 29 -61 16z
m38 -14 c3 -5 -1 -10 -10 -10 -9 0 -13 5 -10 10 3 6 8 10 10 10 2 0 7 -4 10
-10z"/>
<path d="M6486 2118 c3 -4 9 -8 15 -8 5 0 9 4 9 8 0 5 -7 9 -15 9 -8 0 -12 -4
-9 -9z"/>
<path d="M6171 2104 c0 -11 3 -14 6 -6 3 7 2 16 -1 19 -3 4 -6 -2 -5 -13z"/>
<path d="M6335 2100 c-3 -5 -1 -10 4 -10 6 0 11 5 11 10 0 6 -2 10 -4 10 -3 0
-8 -4 -11 -10z"/>
<path d="M6601 2064 c0 -11 3 -14 6 -6 3 7 2 16 -1 19 -3 4 -6 -2 -5 -13z"/>
<path d="M6400 2066 c0 -2 7 -7 16 -10 8 -3 12 -2 9 4 -6 10 -25 14 -25 6z"/>
<path d="M6155 2039 c-4 -6 -5 -12 -2 -15 2 -3 7 2 10 11 7 17 1 20 -8 4z"/>
<path d="M8983 1940 c0 -30 2 -43 4 -27 2 15 2 39 0 55 -2 15 -4 2 -4 -28z"/>
<path d="M11027 1983 c-4 -3 -7 -27 -7 -51 0 -57 6 -52 12 11 5 50 5 51 -5 40z"/>
<path d="M11520 1974 c0 -11 -5 -14 -16 -10 -22 9 -44 -11 -44 -40 0 -26 1
-26 43 -29 26 -2 27 0 27 46 0 27 -2 49 -5 49 -3 0 -5 -7 -5 -16z m-10 -29
c15 -18 6 -45 -15 -45 -18 0 -30 24 -21 45 7 19 20 19 36 0z"/>
<path d="M12043 1940 c0 -30 2 -43 4 -27 2 15 2 39 0 55 -2 15 -4 2 -4 -28z"/>
<path d="M4100 1941 c-20 -40 -19 -101 2 -101 6 0 8 6 5 13 -8 22 12 57 33 57
16 0 20 -7 20 -30 0 -16 5 -30 11 -30 28 0 -1 -49 -56 -93 -33 -27 -59 -52
-58 -57 2 -5 -9 -18 -22 -28 -22 -18 -34 -42 -20 -42 3 0 25 20 48 45 24 25
50 45 57 45 9 0 8 -6 -5 -20 -23 -26 -9 -26 30 0 17 11 33 20 38 20 43 0 -110
-100 -164 -107 -67 -9 -54 21 68 150 25 26 43 50 40 53 -7 7 -64 -34 -93 -66
-12 -14 -25 -22 -29 -18 -7 6 12 73 26 93 4 6 10 27 14 48 6 32 5 37 -12 37
-30 0 -54 -23 -56 -53 -1 -15 -8 -32 -16 -36 -7 -5 -15 -20 -16 -34 -2 -13
-28 -57 -59 -98 -31 -40 -55 -77 -53 -83 2 -5 12 -14 23 -20 28 -16 34 -28 24
-46 -13 -24 7 -40 47 -40 19 0 48 -7 65 -16 17 -9 40 -13 54 -10 17 5 24 2 24
-9 0 -19 30 -19 76 0 33 14 94 11 94 -4 0 -4 -6 -27 -14 -52 -7 -24 -21 -76
-31 -115 -14 -62 -15 -75 -3 -98 13 -26 14 -25 68 83 31 62 58 105 61 98 4 -7
10 -32 14 -57 4 -25 14 -54 22 -65 l15 -20 -7 20 c-32 84 -29 207 6 225 16 9
19 7 19 -8 0 -11 -7 -25 -15 -32 -36 -30 -10 -139 56 -229 26 -36 33 -41 40
-28 6 11 -2 37 -28 89 -44 85 -51 160 -18 185 11 7 25 11 31 9 19 -7 24 55 7
91 -8 18 -23 35 -33 38 -11 3 -22 15 -26 27 -6 20 -7 19 -30 -8 l-24 -29 6 30
c5 29 5 29 -10 11 -9 -11 -16 -24 -16 -29 0 -4 -4 -5 -10 -2 -13 8 21 95 43
109 15 9 24 5 53 -26 18 -21 34 -47 34 -58 0 -11 6 -20 13 -20 20 0 54 60 70
125 35 133 47 169 59 176 23 14 -22 23 -56 11 -18 -7 -40 -12 -49 -12 -9 0
-23 -10 -31 -22 -12 -17 -18 -20 -28 -10 -7 7 -20 12 -30 12 -10 0 -15 5 -12
14 3 7 -6 20 -20 30 -31 20 -36 20 -36 1 0 -20 1 -20 -81 20 -97 47 -123 46
-149 -4z m160 -36 c25 -13 39 -24 32 -25 -14 0 -92 38 -92 45 0 9 15 4 60 -20z
m-23 -17 c39 -18 137 -80 141 -90 2 -5 21 -18 43 -28 21 -11 39 -25 39 -30 0
-15 -16 -12 -31 6 -7 8 -54 40 -103 69 -126 74 -164 106 -89 73z m3 -49 c0
-13 -24 -11 -45 4 -28 21 -9 40 21 21 13 -9 24 -20 24 -25z m-3 -43 c4 -7 24
-18 44 -25 51 -17 74 -43 59 -70 -13 -26 -21 -27 -14 -3 5 15 4 14 -6 -2 -18
-28 -49 -56 -61 -56 -6 0 -22 -14 -37 -32 -15 -17 -47 -44 -71 -60 -84 -53
-201 -33 -201 35 0 20 2 19 26 -10 24 -31 67 -45 76 -25 5 14 100 62 109 56 5
-3 7 -10 4 -15 -14 -21 9 -6 43 29 37 37 37 38 28 90 -5 28 -13 52 -18 52 -4
0 -8 11 -8 25 0 27 14 33 27 11z m138 -26 c3 -5 -1 -10 -9 -10 -8 0 -18 5 -21
10 -3 6 1 10 9 10 8 0 18 -4 21 -10z m116 -63 c-19 -19 -24 1 -10 35 l14 33 3
-29 c2 -16 -1 -33 -7 -39z m-77 37 c9 -3 16 -15 16 -27 0 -19 -1 -20 -20 -2
-30 27 -28 41 4 29z m-478 -80 c-3 -9 -6 -47 -6 -86 0 -51 -3 -69 -12 -65 -17
5 -16 107 1 165 1 1 6 2 12 2 6 0 8 -7 5 -16z m194 -28 c-14 -18 -99 -60 -106
-53 -5 5 95 65 110 66 5 1 3 -6 -4 -13z m150 -202 c-24 -54 -25 -66 -5 -40 19
26 19 13 0 -24 -19 -37 -23 -37 -23 -2 0 75 9 112 28 112 19 0 19 -1 0 -46z
m140 42 c0 -3 -4 -8 -10 -11 -5 -3 -10 -1 -10 4 0 6 5 11 10 11 6 0 10 -2 10
-4z"/>
<path d="M4260 1746 c0 -32 15 -42 18 -11 1 13 -3 27 -8 30 -6 3 -10 -5 -10
-19z"/>
<path d="M7600 1965 c-16 -20 -5 -62 19 -70 21 -6 51 3 51 16 0 5 -9 4 -19 -3
-36 -22 -69 30 -39 60 7 7 9 12 6 12 -3 0 -11 -7 -18 -15z"/>
<path d="M7938 1975 c-10 -11 8 -79 22 -82 12 -4 13 -3 1 5 -9 6 -12 21 -9 41
4 30 -3 47 -14 36z"/>
<path d="M9628 1975 c-10 -11 8 -79 22 -82 12 -4 13 -3 1 5 -9 6 -12 21 -9 41
4 30 -3 47 -14 36z"/>
<path d="M10763 1940 c0 -25 2 -35 4 -22 2 12 2 32 0 45 -2 12 -4 2 -4 -23z"/>
<path d="M10882 1938 c2 -26 9 -43 18 -46 12 -4 13 -2 3 9 -16 17 -17 56 -1
61 7 3 5 7 -6 11 -15 6 -17 1 -14 -35z"/>
<path d="M11677 1973 c-4 -3 -7 -19 -7 -35 0 -40 41 -59 70 -33 26 24 25 35
-2 34 -20 0 -21 -1 -5 -8 17 -6 17 -8 3 -20 -32 -27 -70 14 -47 50 11 18 2 27
-12 12z"/>
<path d="M11720 1976 c0 -2 7 -7 16 -10 8 -3 12 -2 9 4 -6 10 -25 14 -25 6z"/>
<path d="M7708 1959 c-22 -12 -23 -42 -2 -60 31 -26 70 25 44 56 -14 17 -19
18 -42 4z m37 -30 c0 -17 -6 -24 -20 -24 -23 0 -33 34 -13 46 20 13 33 5 33
-22z"/>
<path d="M7822 1953 c9 -10 18 -27 21 -38 4 -17 5 -18 6 -2 1 24 -17 57 -31
57 -7 0 -5 -7 4 -17z"/>
<path d="M7871 1956 c-8 -10 -9 -16 -1 -21 6 -4 9 -1 8 7 -2 7 5 12 14 12 10
-1 15 2 12 7 -8 13 -20 11 -33 -5z"/>
<path d="M8123 1930 c0 -25 2 -35 4 -22 2 12 2 32 0 45 -2 12 -4 2 -4 -23z"/>
<path d="M8188 1958 c7 -7 12 -22 12 -35 0 -13 5 -23 10 -23 13 0 13 12 0 44
-5 14 -15 26 -22 26 -9 0 -9 -3 0 -12z"/>
<path d="M8246 1954 c-19 -19 -20 -25 -3 -48 10 -13 20 -16 35 -12 37 12 26
76 -13 76 -2 0 -11 -7 -19 -16z m42 -18 c6 -29 -15 -43 -35 -24 -14 14 -14 20
-3 33 16 19 34 15 38 -9z"/>
<path d="M8336 1954 c-19 -18 -19 -20 -6 -45 6 -10 19 -19 30 -19 16 0 40 26
40 44 0 8 -31 36 -40 36 -5 0 -16 -7 -24 -16z m44 -10 c11 -12 11 -18 -2 -31
-19 -18 -38 -10 -38 16 0 33 20 40 40 15z"/>
<path d="M8552 1962 c-7 -2 -11 -19 -11 -40 l2 -37 6 35 c4 22 12 35 21 35 10
0 17 -12 19 -35 l4 -35 6 35 c7 44 33 47 42 5 l7 -30 1 33 c0 17 -2 32 -6 33
-30 4 -80 5 -91 1z"/>
<path d="M8682 1958 c-28 -28 -5 -69 36 -65 18 1 22 7 22 34 0 18 -4 33 -9 33
-5 0 -15 2 -23 5 -7 3 -19 0 -26 -7z m36 -7 c19 -11 11 -45 -11 -49 -19 -4
-32 20 -23 43 6 17 15 19 34 6z"/>
<path d="M8805 1954 c-9 -9 -13 -19 -10 -22 3 -3 11 3 19 13 15 21 36 12 36
-15 0 -25 -17 -35 -35 -20 -10 8 -15 9 -15 2 0 -16 18 -24 40 -17 25 8 28 60
4 69 -21 8 -20 8 -39 -10z"/>
<path d="M8933 1956 c24 -18 18 -51 -8 -51 -15 0 -20 7 -20 28 1 15 -3 27 -7
27 -4 0 -7 -24 -7 -52 1 -29 4 -43 6 -31 3 14 9 20 19 16 19 -7 44 15 44 38 0
10 -10 23 -22 29 -21 10 -22 10 -5 -4z"/>
<path d="M9050 1955 c-15 -18 -10 -45 12 -59 12 -7 21 -7 28 0 8 8 4 10 -12
10 -29 -1 -37 33 -12 51 10 7 13 13 7 13 -6 0 -16 -7 -23 -15z"/>
<path d="M9132 1958 c-28 -28 -1 -75 38 -63 14 4 20 15 20 36 0 16 -4 29 -8
29 -4 0 -8 -12 -7 -27 0 -18 -6 -29 -18 -31 -25 -5 -33 25 -12 48 19 21 7 28
-13 8z"/>
<path d="M9306 1954 c-9 -8 -16 -21 -16 -28 0 -21 27 -38 50 -31 35 11 23 75
-15 75 -2 0 -11 -7 -19 -16z m39 -25 c0 -28 -29 -38 -39 -13 -7 19 11 47 28
41 6 -2 11 -14 11 -28z"/>
<path d="M9396 1954 c-20 -19 -20 -38 -1 -54 21 -17 55 -3 55 24 0 21 -17 46
-31 46 -4 0 -15 -7 -23 -16z m39 -25 c0 -28 -29 -38 -39 -13 -7 19 11 47 28
41 6 -2 11 -14 11 -28z"/>
<path d="M9570 1966 c0 -2 7 -9 15 -16 9 -7 15 -8 15 -2 0 5 -7 12 -15 16 -8
3 -15 4 -15 2z"/>
<path d="M9680 1955 c-15 -18 -10 -45 12 -59 12 -7 21 -7 28 0 8 8 4 10 -12
10 -24 -1 -37 29 -21 45 12 12 45 0 37 -12 -3 -5 0 -9 5 -9 18 0 12 19 -8 30
-25 13 -26 13 -41 -5z"/>
<path d="M9766 1954 c-9 -8 -16 -21 -16 -28 0 -20 27 -39 45 -32 9 3 15 0 15
-10 0 -12 -7 -15 -26 -11 -16 3 -22 1 -16 -5 6 -6 18 -8 28 -6 15 2 20 14 22
51 2 26 -1 47 -5 47 -5 0 -9 -12 -8 -27 0 -18 -6 -29 -16 -31 -24 -5 -32 28
-13 49 21 23 12 25 -10 3z"/>
<path d="M9863 1963 c-7 -2 -12 -19 -12 -36 2 -28 2 -29 6 -7 3 14 10 31 15
38 11 13 10 13 -9 5z"/>
<path d="M9906 1954 c-20 -19 -20 -38 -1 -54 24 -20 55 -3 55 31 0 16 -4 29
-8 29 -4 0 -8 -12 -7 -27 0 -18 -6 -29 -16 -31 -24 -5 -32 28 -13 49 21 23 12
25 -10 3z"/>
<path d="M9996 1954 c-19 -19 -20 -25 -3 -48 10 -13 20 -16 35 -12 37 12 26
76 -13 76 -2 0 -11 -7 -19 -16z m39 -25 c0 -28 -29 -38 -39 -13 -7 19 11 47
28 41 6 -2 11 -14 11 -28z"/>
<path d="M10086 1955 c-19 -20 -20 -26 -3 -49 9 -13 20 -16 40 -11 22 6 27 13
27 36 0 16 -4 29 -9 29 -5 0 -16 3 -24 6 -8 3 -22 -2 -31 -11z m44 -11 c11
-12 10 -18 -3 -32 -16 -15 -18 -15 -34 0 -13 14 -14 20 -3 32 7 9 16 16 20 16
4 0 13 -7 20 -16z"/>
<path d="M10210 1955 c-15 -18 -10 -45 12 -59 12 -7 21 -7 28 0 8 8 4 10 -12
10 -18 -1 -23 4 -23 24 0 21 4 25 25 22 19 -2 22 0 10 8 -20 13 -25 13 -40 -5z"/>
<path d="M10298 1959 c-22 -12 -23 -42 -2 -60 31 -26 70 25 44 56 -14 17 -19
18 -42 4z m40 -33 c-2 -13 -10 -21 -23 -21 -23 0 -33 34 -14 45 20 13 40 -1
37 -24z"/>
<path d="M10370 1931 c0 -23 2 -41 4 -41 8 0 12 71 4 76 -4 3 -8 -13 -8 -35z"/>
<path d="M10408 1959 c6 -7 13 -27 13 -43 2 -30 2 -30 6 -4 2 14 11 32 18 38
12 10 17 8 24 -11 5 -13 7 -27 4 -31 -2 -5 1 -8 6 -8 16 0 13 33 -3 56 -12 15
-17 16 -27 7 -9 -9 -18 -9 -33 -1 -17 9 -19 8 -8 -3z"/>
<path d="M10552 1958 c-28 -28 -1 -75 38 -63 14 4 20 15 20 36 0 16 -4 29 -9
29 -5 0 -15 2 -23 5 -7 3 -19 0 -26 -7z m36 -7 c19 -11 11 -45 -11 -49 -19 -4
-32 20 -23 43 6 17 15 19 34 6z"/>
<path d="M10714 1952 c21 -25 14 -55 -11 -50 -12 2 -18 13 -18 31 1 15 -3 27
-7 27 -4 0 -7 -24 -7 -52 1 -29 4 -43 6 -31 3 14 9 20 19 16 19 -7 44 15 44
38 0 10 -10 24 -22 30 -23 12 -23 12 -4 -9z"/>
<path d="M10802 1958 c-11 -11 -17 -58 -8 -58 2 0 13 -3 23 -6 17 -5 17 -5 1
6 -20 12 -24 45 -8 55 16 10 42 -16 37 -37 -3 -10 -1 -18 4 -18 5 0 9 14 9 30
0 17 -4 30 -9 30 -5 0 -15 2 -23 5 -7 3 -19 0 -26 -7z"/>
<path d="M10943 1963 c-14 -5 -18 -62 -5 -64 4 -1 19 -2 35 -3 24 -2 27 1 27
31 0 18 -4 33 -9 33 -5 0 -15 2 -23 4 -7 3 -19 2 -25 -1z m37 -19 c11 -12 11
-18 -2 -31 -19 -18 -38 -10 -38 16 0 33 20 40 40 15z"/>
<path d="M11070 1955 c-26 -31 13 -82 44 -56 22 18 20 48 -3 61 -25 13 -26 13
-41 -5z m38 -4 c19 -11 11 -45 -11 -49 -19 -4 -32 20 -23 43 6 17 15 19 34 6z"/>
<path d="M11213 1963 c-8 -3 -12 -20 -12 -41 l2 -37 6 35 c8 44 34 47 41 5 l6
-30 5 33 c3 17 2 32 -2 32 -4 0 -13 2 -21 4 -7 3 -19 2 -25 -1z"/>
<path d="M11288 1958 c7 -7 12 -20 12 -29 0 -10 4 -20 9 -23 9 -6 7 37 -4 53
-3 6 -11 11 -18 11 -8 0 -8 -3 1 -12z"/>
<path d="M11346 1954 c-19 -19 -20 -25 -3 -48 14 -19 57 -15 57 6 0 6 -6 5
-16 -2 -12 -11 -18 -10 -32 3 -15 16 -15 18 1 35 17 16 19 16 33 -2 11 -16 14
-17 14 -4 0 9 -7 19 -16 22 -21 8 -20 8 -38 -10z"/>
<path d="M11560 1955 c-26 -31 13 -82 44 -56 22 18 20 48 -3 61 -25 13 -26 13
-41 -5z m40 -10 c15 -18 6 -45 -15 -45 -18 0 -30 24 -21 45 7 19 20 19 36 0z"/>
<path d="M11788 1959 c-37 -21 -9 -77 32 -64 22 7 27 44 8 63 -14 14 -18 14
-40 1z m37 -30 c0 -15 -7 -25 -18 -27 -22 -4 -33 24 -17 43 18 21 35 13 35
-16z"/>
<path d="M11870 1955 c-26 -31 13 -82 44 -56 22 18 20 48 -3 61 -25 13 -26 13
-41 -5z m40 -10 c15 -18 6 -45 -15 -45 -18 0 -30 24 -21 45 7 19 20 19 36 0z"/>
<path d="M11956 1954 c-19 -19 -20 -25 -3 -48 10 -13 20 -16 35 -12 37 12 26
76 -13 76 -2 0 -11 -7 -19 -16z m42 -18 c6 -29 -15 -43 -35 -24 -14 14 -14 20
-3 33 16 19 34 15 38 -9z"/>
<path d="M12083 1963 c-22 -8 -16 -61 8 -68 12 -4 25 -3 30 2 6 6 1 9 -13 9
-25 -1 -37 29 -18 48 8 8 15 6 26 -8 11 -16 14 -17 14 -4 0 12 -24 32 -33 27
-1 0 -8 -3 -14 -6z"/>
<path d="M7780 1925 c0 -19 2 -35 4 -35 2 0 6 16 8 35 2 19 0 35 -4 35 -4 0
-8 -16 -8 -35z"/>
<path d="M7990 1930 c0 -16 2 -30 4 -30 2 0 6 14 8 30 3 17 1 30 -4 30 -4 0
-8 -13 -8 -30z"/>
<path d="M8043 1928 c2 -28 6 -33 30 -34 25 -1 27 2 26 35 -1 36 -1 36 -8 6
-9 -42 -38 -45 -45 -6 l-6 31 3 -32z"/>
<path d="M8150 1925 c0 -19 2 -35 4 -35 2 0 6 16 8 35 2 19 0 35 -4 35 -4 0
-8 -16 -8 -35z"/>
<path d="M8453 1930 c2 -31 5 -35 30 -36 25 -1 27 2 26 35 -1 36 -1 36 -8 6
-3 -17 -13 -30 -21 -30 -8 0 -18 13 -22 30 -6 29 -6 29 -5 -5z"/>
<path d="M9013 1925 c0 -22 2 -30 4 -17 2 12 2 30 0 40 -3 9 -5 -1 -4 -23z"/>
<path d="M9214 1945 c-13 -32 25 -70 47 -48 6 6 2 9 -13 9 -19 -1 -23 4 -23
27 1 30 -3 34 -11 12z"/>
<path d="M9512 1930 c0 -19 2 -27 5 -17 2 9 2 25 0 35 -3 9 -5 1 -5 -18z"/>
<path d="M9540 1925 c0 -19 2 -35 4 -35 2 0 6 16 8 35 2 19 0 35 -4 35 -4 0
-8 -16 -8 -35z"/>
<path d="M11151 1923 c2 -35 2 -35 6 -8 3 16 10 33 16 37 8 5 6 8 -5 8 -14 0
-18 -8 -17 -37z"/>
<path d="M6246 1918 c3 -5 10 -6 15 -3 13 9 11 12 -6 12 -8 0 -12 -4 -9 -9z"/>
<path d="M7897 1914 c5 -13 1 -15 -18 -10 -20 6 -21 5 -6 -4 9 -6 22 -8 27 -5
13 8 13 35 0 35 -5 0 -7 -7 -3 -16z"/>
<path d="M9590 1914 c0 -8 5 -12 10 -9 6 4 8 11 5 16 -9 14 -15 11 -15 -7z"/>
<path d="M6280 1916 c0 -2 7 -7 16 -10 8 -3 12 -2 9 4 -6 10 -25 14 -25 6z"/>
<path d="M12000 1881 c0 -9 -9 -12 -25 -9 -13 3 -22 1 -19 -3 7 -13 42 -11 49
2 4 6 4 13 1 16 -3 4 -6 1 -6 -6z"/>
<path d="M9245 1870 c-3 -5 -1 -10 4 -10 6 0 11 5 11 10 0 6 -2 10 -4 10 -3 0
-8 -4 -11 -10z"/>
<path d="M1690 1665 l-85 -85 85 -85 c47 -47 89 -85 95 -85 5 0 -28 38 -75 85
l-85 85 85 85 c47 47 80 85 75 85 -6 0 -48 -38 -95 -85z"/>
<path d="M6750 1745 c0 -5 35 -45 77 -87 l78 -78 -66 -66 c-61 -61 -68 -65
-90 -55 -22 11 -22 11 -6 -2 15 -13 16 -16 2 -27 -10 -8 -12 -17 -6 -23 6 -6
41 24 95 79 47 49 86 91 86 94 0 3 -38 43 -85 90 -47 47 -85 80 -85 75z"/>
<path d="M6201 1634 c0 -11 3 -14 6 -6 3 7 2 16 -1 19 -3 4 -6 -2 -5 -13z"/>
<path d="M6062 1620 c0 -14 2 -19 5 -12 2 6 2 18 0 25 -3 6 -5 1 -5 -13z"/>
<path d="M6056 1567 c3 -10 9 -15 12 -12 3 3 0 11 -7 18 -10 9 -11 8 -5 -6z"/>
<path d="M2580 1560 c0 -4 -9 -10 -21 -13 -25 -7 -20 -31 7 -35 41 -7 47 -11
34 -27 -8 -9 -30 -15 -56 -15 -38 0 -44 -3 -44 -21 0 -20 4 -21 80 -17 58 2
84 8 96 20 21 21 22 74 2 94 -15 16 -98 27 -98 14z m27 -16 c-3 -3 -12 -4 -19
-1 -8 3 -5 6 6 6 11 1 17 -2 13 -5z m-37 -14 c0 -5 -2 -10 -4 -10 -3 0 -8 5
-11 10 -3 6 -1 10 4 10 6 0 11 -4 11 -10z"/>
<path d="M2428 1513 c7 -3 16 -2 19 1 4 3 -2 6 -13 5 -11 0 -14 -3 -6 -6z"/>
<path d="M3880 1481 c0 -6 4 -13 10 -16 5 -3 3 -19 -7 -40 -24 -49 -7 -65 68
-65 l59 0 38 -59 c21 -32 46 -79 56 -104 11 -30 22 -44 30 -41 10 4 15 -14 21
-73 7 -79 24 -123 49 -123 8 0 26 14 41 31 27 33 27 51 -1 29 -13 -12 -17 -11
-25 1 -5 8 -9 24 -9 36 0 12 -6 28 -14 36 -9 9 -12 24 -9 37 5 17 3 21 -6 15
-10 -5 -11 -2 -7 13 6 19 -42 124 -91 199 -14 22 -14 23 13 34 16 6 48 9 72 6
39 -4 43 -3 40 17 -2 15 -10 21 -28 20 -32 -2 -148 -21 -179 -30 -18 -5 -22
-4 -16 6 6 10 -2 12 -43 6 -34 -4 -52 -3 -52 4 0 6 24 10 55 10 30 0 55 4 55
9 0 11 -80 51 -103 51 -9 0 -17 -4 -17 -9z"/>
<path d="M2456 1465 c3 -8 10 -13 14 -10 5 3 11 -1 13 -7 4 -10 6 -10 6 -1 1
7 -8 17 -19 23 -16 9 -18 8 -14 -5z"/>
<path d="M6357 1399 c-23 -14 -47 -62 -47 -96 0 -15 -9 -60 -20 -98 -24 -84
-25 -125 -4 -194 17 -60 36 -71 118 -71 64 0 80 12 100 73 21 63 20 108 -4
192 -11 38 -20 83 -20 98 0 76 -67 129 -123 96z m81 -21 c17 -17 15 -73 -3
-88 -20 -16 -45 -5 -45 20 0 11 -7 20 -15 20 -8 0 -15 5 -15 10 0 6 6 10 14
10 7 0 16 9 19 20 6 22 27 26 45 8z m-34 -140 c13 -14 15 -23 8 -26 -7 -2 -12
-10 -12 -19 0 -9 -8 -13 -22 -11 -26 3 -36 41 -18 64 16 19 22 18 44 -8z"/>
<path d="M6026 1385 c-3 -9 -6 -26 -5 -38 1 -16 4 -12 10 12 10 34 6 55 -5 26z"/>
<path d="M4143 1373 c-29 -20 -29 -28 2 -64 l24 -29 7 37 c4 21 8 46 10 56 4
21 -13 21 -43 0z"/>
<path d="M8402 1294 c-12 -8 -22 -22 -22 -30 0 -8 -10 -14 -24 -14 -31 0 -36
-15 -36 -105 0 -97 8 -105 105 -105 109 0 105 -4 105 111 0 84 -2 99 -16 99
-9 0 -29 14 -44 30 -32 34 -38 36 -68 14z m48 -29 c0 -16 -35 -21 -44 -6 -8
12 4 21 26 21 10 0 18 -7 18 -15z m-70 -55 c0 -11 5 -20 10 -20 6 0 10 9 10
20 0 15 7 20 26 20 17 0 28 -6 31 -20 3 -11 9 -20 14 -20 5 0 9 9 9 20 0 11 7
20 15 20 12 0 15 -16 15 -80 l0 -80 -80 0 -80 0 0 80 c0 64 3 80 15 80 8 0 15
-9 15 -20z"/>
<path d="M7746 1278 c-39 -36 -41 -66 -8 -119 16 -25 50 -63 76 -84 l47 -38
65 64 c73 73 90 119 61 163 -22 32 -70 43 -103 21 -22 -14 -27 -14 -46 0 -31
21 -63 19 -92 -7z m84 -23 c7 -8 20 -15 30 -15 10 0 23 7 30 15 19 23 57 18
76 -9 14 -23 14 -28 -1 -60 -18 -39 -87 -106 -108 -106 -15 0 -90 75 -106 107
-15 30 -14 49 5 67 20 20 58 21 74 1z"/>
<path d="M4306 1244 c-5 -14 -4 -15 9 -4 17 14 19 20 6 20 -5 0 -12 -7 -15
-16z"/>
<path d="M4330 1219 c0 -5 5 -7 10 -4 6 3 10 8 10 11 0 2 -4 4 -10 4 -5 0 -10
-5 -10 -11z"/>
<path d="M4345 1200 c-3 -6 1 -7 9 -4 18 7 21 14 7 14 -6 0 -13 -4 -16 -10z"/>
<path d="M2850 1105 c-1 -5 -2 -18 -1 -27 2 -11 -15 -26 -46 -42 -46 -23 -47
-25 -24 -33 61 -24 111 25 86 82 -7 17 -14 26 -15 20z"/>
<path d="M6070 1101 c0 -6 4 -13 10 -16 6 -3 7 1 4 9 -7 18 -14 21 -14 7z"/>
<path d="M2102 1075 c-7 -14 -20 -25 -31 -25 -11 0 -23 -5 -27 -12 -4 -7 -3
-8 4 -4 7 4 12 3 12 -3 0 -5 -10 -13 -22 -17 -22 -7 -22 -8 7 -16 38 -10 79
17 83 57 5 38 -12 51 -26 20z"/>
<path d="M1850 1072 c0 -11 -12 -22 -33 -30 -55 -20 -41 -56 17 -45 30 6 60
52 50 77 -8 22 -34 20 -34 -2z"/>
<path d="M4061 1018 c-35 -38 -62 -70 -59 -73 3 -3 11 1 18 10 7 8 17 15 22
15 6 0 5 -7 -2 -15 -14 -17 0 -21 17 -4 6 6 22 16 34 23 17 8 26 24 31 56 4
25 7 47 5 50 -1 3 -31 -25 -66 -62z"/>
<path d="M4489 1003 c-13 -16 -12 -17 4 -4 16 13 21 21 13 21 -2 0 -10 -8 -17
-17z"/>
<path d="M6190 925 c0 -9 6 -12 15 -9 8 4 12 10 9 15 -8 14 -24 10 -24 -6z"/>
<path d="M3965 900 c-3 -5 -1 -10 4 -10 6 0 11 5 11 10 0 6 -2 10 -4 10 -3 0
-8 -4 -11 -10z"/>
<path d="M2092 630 c0 -14 2 -19 5 -12 2 6 2 18 0 25 -3 6 -5 1 -5 -13z"/>
<path d="M5575 620 c-3 -5 -2 -10 4 -10 5 0 13 5 16 10 3 6 2 10 -4 10 -5 0
-13 -4 -16 -10z"/>
<path d="M5615 620 c-3 -5 -1 -10 4 -10 6 0 11 5 11 10 0 6 -2 10 -4 10 -3 0
-8 -4 -11 -10z"/>
<path d="M5812 625 c4 -4 0 -14 -10 -22 -16 -12 -16 -13 2 -6 16 5 18 3 13
-11 -4 -10 -3 -15 3 -11 14 9 12 42 -2 51 -7 4 -10 4 -6 -1z"/>
<path d="M5904 616 c-3 -8 -4 -23 -2 -33 3 -11 6 -6 9 15 6 34 2 42 -7 18z"/>
<path d="M5952 609 c-8 -12 -9 -18 -3 -15 5 3 12 -2 14 -11 3 -10 5 -3 6 15 1
38 0 39 -17 11z"/>
<path d="M2112 600 c0 -14 2 -19 5 -12 2 6 2 18 0 25 -3 6 -5 1 -5 -13z"/>
<path d="M5850 601 c0 -11 4 -22 9 -25 4 -3 6 6 3 19 -5 30 -12 33 -12 6z"/>
<path d="M2049 593 c-13 -17 -13 -17 6 -3 11 8 22 16 24 17 2 2 0 3 -6 3 -6 0
-17 -8 -24 -17z"/>
<path d="M2200 600 c-8 -5 -12 -11 -10 -14 3 -2 14 2 24 10 22 15 10 19 -14 4z"/>
<path d="M3925 599 c-11 -16 -1 -19 13 -3 7 8 8 14 3 14 -5 0 -13 -5 -16 -11z"/>
<path d="M4075 600 c-3 -6 1 -7 9 -4 18 7 21 14 7 14 -6 0 -13 -4 -16 -10z"/>
<path d="M5605 580 c3 -5 8 -10 11 -10 2 0 4 5 4 10 0 6 -5 10 -11 10 -5 0 -7
-4 -4 -10z"/>
<path d="M15928 58 c9 -9 15 -9 24 0 9 9 7 12 -12 12 -19 0 -21 -3 -12 -12z"/>
</g>
</svg>
